<svg width="180" height="110" viewBox="0 0 180 110" fill="none" xmlns="http://www.w3.org/2000/svg">
<g clip-path="url(#clip0_603_608)">
<g clip-path="url(#clip1_603_608)">
<path d="M25.0374 61.2625C24.8928 61.2692 24.7497 61.2312 24.6274 61.1538C24.5052 61.0764 24.4097 60.9632 24.3538 60.8297C24.298 60.6962 24.2846 60.5488 24.3153 60.4073C24.3461 60.2659 24.4196 60.1374 24.5259 60.0392C24.5437 59.9684 24.5564 59.9176 24.5742 59.8469C24.4359 59.4954 24.1957 59.1933 23.8845 58.9792C23.5734 58.7651 23.2053 58.6488 22.8276 58.6453C22.4499 58.6417 22.0798 58.751 21.7646 58.9592C21.4495 59.1674 21.2036 59.4649 21.0587 59.8137C20.2222 61.7717 19.1395 63.7987 19.678 65.9553C16.1216 58.418 17.331 49.0422 22.5869 42.5963C24.0397 41.796 25.2172 40.3742 25.5237 38.7232C24.8047 38.9668 23.9083 38.382 24.4489 37.6247C24.6832 37.3352 24.9198 37.048 25.1541 36.7585C22.4229 33.8498 19.1687 38.4213 22.175 42.3472C21.1915 43.5802 20.3397 44.9126 19.6333 46.3228C19.7964 44.8254 19.6017 43.3107 19.0652 41.9033C18.5215 40.5916 17.5024 39.4869 16.6049 38.3529C15.5137 36.9712 13.2679 37.6087 13.121 39.362C14.1281 39.693 14.2589 41.1477 13.107 41.3468C13.4087 44.6086 15.5397 47.6062 18.4746 49.0367C17.3908 52.0778 16.9676 55.315 17.2332 58.5326C16.7151 54.7722 12.6786 53.8597 9.85731 52.3651C9.67774 52.25 9.46854 52.1896 9.25523 52.1913C9.04192 52.193 8.83371 52.2567 8.65602 52.3748C8.47832 52.4928 8.33881 52.66 8.2545 52.8559C8.1702 53.0519 8.14475 53.2681 8.18125 53.4783C8.57065 53.6366 8.94336 53.8333 9.29389 54.0653C9.45814 54.1757 9.58421 54.3342 9.65483 54.5191C9.72545 54.704 9.73715 54.9062 9.68834 55.098C9.63952 55.2899 9.53258 55.4619 9.38217 55.5905C9.23176 55.7192 9.04524 55.7981 8.84819 55.8166C10.2703 59.3363 13.9471 61.6998 17.7233 61.6865C18.0862 63.2635 18.612 64.7984 19.2923 66.2667H24.897C24.9171 66.2044 24.9351 66.1401 24.9532 66.0779C24.4344 66.1105 23.9136 66.0794 23.4024 65.9855C24.7749 64.3604 25.8362 63.5312 25.0374 61.2625Z" fill="#F2F2F2"/>
<path d="M140.309 61.2625C140.454 61.2692 140.597 61.2312 140.719 61.1538C140.841 61.0764 140.937 60.9632 140.993 60.8297C141.049 60.6962 141.062 60.5488 141.031 60.4073C141 60.2659 140.927 60.1374 140.821 60.0392C140.803 59.9684 140.79 59.9176 140.772 59.8469C140.911 59.4954 141.151 59.1933 141.462 58.9792C141.773 58.7651 142.141 58.6488 142.519 58.6453C142.897 58.6417 143.267 58.751 143.582 58.9592C143.897 59.1674 144.143 59.4649 144.288 59.8137C145.124 61.7717 146.207 63.7987 145.669 65.9553C149.225 58.418 148.015 49.0422 142.76 42.5963C141.307 41.796 140.129 40.3742 139.823 38.7232C140.542 38.9668 141.438 38.382 140.898 37.6247C140.663 37.3352 140.427 37.048 140.192 36.7585C142.924 33.8498 146.178 38.4213 143.172 42.3472C144.155 43.5802 145.007 44.9126 145.713 46.3228C145.55 44.8254 145.745 43.3107 146.281 41.9033C146.825 40.5916 147.844 39.4869 148.742 38.3529C149.833 36.9712 152.079 37.6087 152.225 39.362C151.218 39.693 151.088 41.1477 152.24 41.3468C151.938 44.6086 149.807 47.6062 146.872 49.0367C147.956 52.0778 148.379 55.315 148.113 58.5326C148.631 54.7722 152.668 53.8597 155.489 52.3651C155.669 52.25 155.878 52.1896 156.091 52.1913C156.305 52.193 156.513 52.2567 156.69 52.3748C156.868 52.4928 157.008 52.66 157.092 52.8559C157.176 53.0519 157.202 53.2681 157.165 53.4783C156.776 53.6366 156.403 53.8333 156.053 54.0653C155.888 54.1757 155.762 54.3342 155.692 54.5191C155.621 54.704 155.609 54.9062 155.658 55.098C155.707 55.2899 155.814 55.4619 155.964 55.5905C156.115 55.7192 156.301 55.7981 156.498 55.8166C155.076 59.3363 151.399 61.6998 147.623 61.6865C147.26 63.2635 146.734 64.7984 146.054 66.2667H140.45C140.429 66.2044 140.411 66.1401 140.393 66.0779C140.912 66.1105 141.433 66.0794 141.944 65.9855C140.572 64.3604 139.51 63.5313 140.309 61.2626L140.309 61.2625Z" fill="#F2F2F2"/>
<path d="M-0.999999 66.4121C-1.00009 66.4427 -0.994138 66.473 -0.982487 66.5012C-0.970837 66.5295 -0.953716 66.5551 -0.932111 66.5767C-0.910506 66.5983 -0.884844 66.6154 -0.856598 66.6271C-0.828352 66.6387 -0.798082 66.6447 -0.767529 66.6446H163.768C163.829 66.6446 163.888 66.6201 163.932 66.5765C163.976 66.5329 164 66.4738 164 66.4121C164 66.3505 163.976 66.2914 163.932 66.2478C163.888 66.2042 163.829 66.1797 163.768 66.1797H-0.767541C-0.798093 66.1796 -0.82836 66.1855 -0.856604 66.1972C-0.884848 66.2088 -0.91051 66.226 -0.932114 66.2476C-0.953717 66.2692 -0.970837 66.2948 -0.982487 66.3231C-0.994138 66.3513 -1.00009 66.3816 -0.999999 66.4121Z" fill="#CCCCCC"/>
<path d="M28.0094 63.1848C27.9314 62.0426 27.931 60.9523 27.9086 60.1114C27.8631 58.399 31.5563 58.5212 33.5421 58.4683L40.7528 58.1265C42.7387 58.0737 44.3914 59.4239 44.4369 61.1364C44.4825 62.8488 42.9039 64.285 40.918 64.3378C38.0011 66.8697 35.7386 66.9928 31.7373 66.8236C30.7769 66.7826 29.8653 66.3886 29.1774 65.7171C28.4895 65.0457 28.0736 64.1439 28.0094 63.1848Z" fill="#2F2E41"/>
<path d="M44.5894 82.8534L46.6553 83.1909L48.9404 75.3829L45.8913 74.8848L44.5894 82.8534Z" fill="#FFB6B6"/>
<path d="M45.4101 66.5723C41.5582 67.5194 38.7139 66.4528 36.3712 66.5911C35.0396 64.3441 30.7888 61.4899 33.1081 60.2885C34.3997 59.6195 47.53 58.0771 49.2536 59.8572C51.6806 62.3635 51.3416 66.9223 50.538 70.5344C50.5165 70.6308 50.4948 70.7265 50.4727 70.8215C50.432 70.9968 50.3904 71.1696 50.3479 71.3397C50.2944 71.554 49.9247 71.5504 49.8696 71.755C49.7917 72.0436 50.0279 72.5352 49.9494 72.8009C49.8148 73.2561 49.4079 73.6841 49.5573 74.0466C49.9693 75.0465 49.1185 75.8239 48.8929 75.8572L45.7674 75.0758C45.5467 75.0238 45.0287 74.4754 45.8566 73.9938C46.0911 73.8574 45.8931 73.4111 45.9084 73.0688C45.9178 72.8584 45.9261 72.6366 45.9326 72.406C45.9412 72.0995 45.9466 71.7774 45.9472 71.4458C45.9502 69.8101 45.8362 67.9427 45.4101 66.5723Z" fill="#2F2E41"/>
<path d="M44.7699 79.9526L47.8334 80.58L47.4875 81.8719L49.8241 84.6194C49.9395 84.755 50.0085 84.9241 50.0211 85.1018C50.0336 85.2795 49.989 85.4565 49.8938 85.6071C49.7987 85.7576 49.6578 85.8738 49.4919 85.9387C49.326 86.0036 49.1437 86.0137 48.9716 85.9676L45.3818 85.0064L45.1052 83.5628L44.5215 84.776L43.168 84.4136L44.7699 79.9526Z" fill="#2F2E41"/>
<path d="M21.7085 69.2579L21.8872 71.3436L30.0172 71.6468L29.7533 68.5684L21.7085 69.2579Z" fill="#FFB6B6"/>
<path d="M41.4863 65.1082C37.9332 63.807 36.6046 60.6354 35.4625 57.3071C37.315 55.4656 39.8651 52.7047 41.5979 54.6591C42.5629 55.7475 50.2419 65.0828 48.9382 67.19C46.9324 70.432 40.3872 71.4287 35.4528 71.7063C35.1511 71.7233 34.8558 71.7377 34.5671 71.7496C34.3019 71.7605 34.0433 71.7696 33.7915 71.7769C32.7722 71.8064 31.6981 71.3337 31.1703 71.7996C30.2193 72.6389 29.5852 72.2341 29.5539 71.755L29.3586 68.4342C29.2163 67.8999 30.7138 67.4522 31.312 68.0435C31.7418 68.4685 31.5584 67.9854 32.6865 67.7284C35.4137 67.107 39.1859 66.1421 41.4863 65.1082Z" fill="#2F2E41"/>
<path d="M24.5649 68.7227L24.707 71.8466L23.3697 71.8276L21.2782 74.766C21.175 74.9111 21.028 75.0194 20.8588 75.0751C20.6896 75.1308 20.507 75.131 20.3377 75.0755C20.1684 75.0201 20.0213 74.912 19.9177 74.7671C19.8142 74.6221 19.7598 74.4478 19.7623 74.2697L19.815 70.5538L21.1468 69.9321L19.8276 69.6633L19.8475 68.2622L24.5649 68.7227Z" fill="#2F2E41"/>
<path d="M29.283 61.006C29.2742 60.9905 29.2698 60.9728 29.2704 60.9549C29.2709 60.9371 29.2763 60.9197 29.2861 60.9047C28.0862 60.8602 26.8952 61.1349 27.2099 60.0347C27.2548 59.8775 28.3347 58.7283 28.3976 58.556C28.4523 58.4065 28.1207 57.6551 28.1866 57.4953C28.3158 57.1821 28.857 57.4465 29.0176 57.0998C29.0741 56.9777 28.7136 56.6441 28.7726 56.5185C28.8281 56.4005 29.3031 56.4908 29.3603 56.37C30.4352 54.0992 31.7535 51.3593 31.4068 49.0961C30.9675 46.228 31.0343 42.1581 30.9493 39.5842C30.9328 39.0733 31.0873 38.5714 31.3883 38.1581C31.6893 37.7449 32.1195 37.4438 32.6109 37.3027C33.3947 37.0748 34.3345 36.6731 34.9583 35.9778C35.1214 35.7959 35.1411 36.1221 35.1619 35.6786C35.1874 35.1384 35.2136 34.5797 35.5021 34.2913L35.5146 34.2788L35.5314 34.2731C36.7455 33.8687 38.7957 34.1303 39.4053 34.2712L39.4317 34.2774L39.4481 34.299C39.7001 34.6315 39.6862 35.1636 39.6728 35.678C39.6607 36.1409 39.6493 35.833 39.8544 35.9648C40.0131 36.0669 40.1657 36.1645 40.312 36.2576C42.1166 37.4086 43.0224 37.9865 43.686 39.8667C43.8957 40.4131 43.9747 41.0009 43.9164 41.5833C43.6796 43.4647 42.6743 57.2559 42.2716 57.7367C42.1671 57.8615 42.4386 58.0783 42.5511 58.2401C42.7124 58.4725 42.1998 58.673 42.1196 58.8265C42.0649 58.9311 41.9236 58.9799 41.6749 58.9799C40.7374 58.9798 29.5559 61.5159 29.283 61.006Z" fill="#002780"/>
<path d="M37.1083 53.2857C37.4576 53.505 36.7739 54.0325 36.3615 54.0325C36.1635 54.0325 35.9735 53.9538 35.8335 53.8137C35.6934 53.6737 35.6147 53.4838 35.6147 53.2857C35.6147 52.8733 36.0774 51.8932 36.2682 52.2589C36.3202 52.3587 36.6525 52.9996 37.1083 53.2857Z" fill="#C81025"/>
<path d="M38.3212 53.2857C38.6705 53.505 37.9868 54.0325 37.5744 54.0325C37.3763 54.0325 37.1864 53.9538 37.0464 53.8137C36.9063 53.6737 36.8276 53.4838 36.8276 53.2857C36.8276 52.8733 37.2903 51.8932 37.4811 52.2589C37.5331 52.3587 37.8654 52.9996 38.3212 53.2857Z" fill="#C81025"/>
<path d="M37.7423 53.1181C37.3472 52.9998 37.8656 52.3092 38.2631 52.1993C38.3577 52.1732 38.4564 52.166 38.5537 52.178C38.651 52.19 38.745 52.2211 38.8304 52.2695C38.9157 52.3179 38.9906 52.3826 39.0509 52.4599C39.1112 52.5372 39.1557 52.6257 39.1818 52.7202C39.2917 53.1177 39.1068 54.1856 38.8256 53.884C38.7488 53.8016 38.2578 53.2724 37.7423 53.1181Z" fill="#C81025"/>
<path d="M42.4296 53.2857C42.7789 53.505 42.0952 54.0325 41.6828 54.0325C41.4847 54.0325 41.2948 53.9538 41.1548 53.8137C41.0147 53.6737 40.936 53.4838 40.936 53.2857C40.936 52.8733 41.3987 51.8932 41.5895 52.2589C41.6415 52.3587 41.9738 52.9996 42.4296 53.2857Z" fill="#C81025"/>
<path d="M43.6429 53.2857C43.9922 53.505 43.3086 54.0325 42.8962 54.0325C42.6981 54.0325 42.5082 53.9538 42.3681 53.8137C42.2281 53.6737 42.1494 53.4838 42.1494 53.2857C42.1494 52.8733 42.6121 51.8932 42.8028 52.2589C42.8549 52.3587 43.1871 52.9996 43.6429 53.2857Z" fill="#C81025"/>
<path d="M43.0631 53.1181C42.668 52.9998 43.1864 52.3092 43.5839 52.1993C43.7748 52.1466 43.9789 52.1718 44.1512 52.2695C44.3234 52.3672 44.4499 52.5293 44.5026 52.7202C44.6125 53.1177 44.4276 54.1856 44.1464 53.884C44.0696 53.8016 43.5786 53.2724 43.0631 53.1181Z" fill="#C81025"/>
<path d="M34.4752 53.1181C34.0801 52.9998 34.5985 52.3092 34.996 52.1993C35.1869 52.1466 35.391 52.1718 35.5633 52.2695C35.7356 52.3672 35.862 52.5293 35.9147 52.7202C36.0246 53.1177 35.8397 54.1856 35.5585 53.884C35.4817 53.8016 34.9907 53.2724 34.4752 53.1181Z" fill="#C81025"/>
<path d="M39.7853 53.9165C39.6183 54.2936 38.9984 53.6925 38.9393 53.2843C38.911 53.0883 38.9616 52.8891 39.0802 52.7304C39.1987 52.5718 39.3755 52.4667 39.5715 52.4383C39.9797 52.3793 41.0159 52.6969 40.6813 52.938C40.5899 53.0038 40.0033 53.4244 39.7853 53.9165Z" fill="#C81025"/>
<path d="M41.2167 52.6655C41.3161 52.2653 42.0305 52.7504 42.159 53.1423C42.1896 53.2354 42.2015 53.3337 42.1941 53.4315C42.1867 53.5293 42.1601 53.6247 42.1158 53.7122C42.0716 53.7997 42.0105 53.8776 41.9361 53.9415C41.8617 54.0054 41.7755 54.054 41.6823 54.0846C41.2904 54.2132 40.215 54.0791 40.503 53.7839C40.5816 53.7033 41.0869 53.1878 41.2167 52.6655Z" fill="#C81025"/>
<path d="M40.6566 52.1055C40.7561 51.7052 41.4704 52.1903 41.599 52.5822C41.6295 52.6754 41.6415 52.7737 41.6341 52.8714C41.6266 52.9692 41.6 53.0646 41.5558 53.1521C41.5115 53.2396 41.4504 53.3175 41.376 53.3814C41.3017 53.4453 41.2154 53.494 41.1222 53.5246C40.7304 53.6531 39.6549 53.519 39.9429 53.2238C40.0215 53.1432 40.5268 52.6277 40.6566 52.1055Z" fill="#C81025"/>
<path d="M33.5548 55.8496L34.432 58.7098C34.524 59.2052 34.7865 59.6528 35.1739 59.975C35.5613 60.2971 36.0493 60.4735 36.5531 60.4736H42.7598C43.2715 60.4751 43.767 60.294 44.1571 59.9629C44.5473 59.6319 44.8065 59.1725 44.8883 58.6674L44.8904 58.658L45.6676 55.8105C45.7144 55.5224 45.698 55.2275 45.6197 54.9463C45.5413 54.6651 45.4027 54.4043 45.2136 54.182C45.0245 53.9596 44.7893 53.781 44.5243 53.6586C44.2594 53.5361 43.9709 53.4727 43.679 53.4727H35.5366C35.2413 53.4726 34.9497 53.5375 34.6823 53.6627C34.4149 53.7879 34.1783 53.9704 33.9892 54.1972C33.8001 54.4239 33.6632 54.6895 33.5882 54.975C33.5131 55.2606 33.5017 55.5592 33.5548 55.8496Z" fill="#FCD20F"/>
<path d="M39.0622 50.6069L44.4438 49.2422L45.2803 52.0111C45.2803 52.0111 39.4906 52.4398 39.2741 52.4419C39.1123 52.6709 38.8848 52.8454 38.6216 52.9423C38.3585 53.0392 38.0721 53.0539 37.8004 52.9845C37.5287 52.9151 37.2845 52.7649 37.1 52.5536C36.9156 52.3424 36.7996 52.0802 36.7674 51.8016C36.7353 51.523 36.7884 51.2413 36.9199 50.9936C37.0513 50.7459 37.2549 50.5439 37.5036 50.4144C37.7524 50.2849 38.0345 50.234 38.3129 50.2683C38.5912 50.3027 38.8525 50.4207 39.0622 50.6069Z" fill="#FFB6B6"/>
<path d="M42.6531 38.0503C46.4902 40.1007 46.9998 44.6717 49.3539 48.6888C49.5597 50.5464 49.296 52.1788 47.4273 52.2117L46.5489 52.4163L45.9098 52.2467L45.5722 52.6117L44.857 52.271L44.0311 52.4291L42.3188 52.4685L43.3991 49.4762L44.9395 48.601L43.1188 44.1963L42.6531 38.0503Z" fill="#002780"/>
<path d="M30.9266 30.5577C31.5527 29.7435 31.1093 28.5786 31.0891 27.5466C31.0514 25.6208 32.7524 23.9259 34.5997 23.6753C36.4469 23.4246 38.2885 24.3923 39.5057 25.8275C40.699 27.2343 41.5942 27.9717 42.2401 29.7266C42.4567 30.3151 42.4505 31.9902 42.3754 32.6201C42.3003 33.25 41.8236 33.8843 41.2125 33.8892C41.2436 34.0116 41.2404 34.1401 41.2035 34.2608C41.1666 34.3814 41.0973 34.4897 41.0031 34.5737C40.9089 34.6577 40.7935 34.7143 40.6694 34.7373C40.5453 34.7603 40.4173 34.7488 40.2993 34.7041C39.2355 34.2403 37.0613 34.3734 37.0613 34.3734C35.1329 34.056 33.2046 33.7386 31.2763 33.4212C30.7822 33.3399 30.2703 33.2519 29.8923 32.8842C29.787 32.786 29.7041 32.6662 29.6495 32.533C29.5948 32.3998 29.5696 32.2564 29.5756 32.1125C29.6257 31.3664 30.4949 31.1192 30.9266 30.5577Z" fill="#2F2E41"/>
<path d="M37.2851 34.159C39.3928 34.159 41.1014 32.4504 41.1014 30.3427C41.1014 28.235 39.3928 26.5264 37.2851 26.5264C35.1774 26.5264 33.4688 28.235 33.4688 30.3427C33.4688 32.4504 35.1774 34.159 37.2851 34.159Z" fill="#FFB6B6"/>
<path d="M39.5905 29.6312L34.5974 28.4223C34.3823 28.3713 34.1956 28.2383 34.0771 28.0517C33.9586 27.8651 33.9175 27.6396 33.9628 27.4232C34.0671 26.9503 34.2636 26.5026 34.5412 26.1058C34.8187 25.7089 35.1718 25.3707 35.5802 25.1105C35.9886 24.8503 36.4444 24.6732 36.9213 24.5893C37.3983 24.5055 37.8871 24.5165 38.3598 24.6218L39.8384 24.9529C40.3141 25.0595 40.7642 25.2587 41.1629 25.5391C41.5616 25.8196 41.9012 26.1758 42.1622 26.5875C42.4232 26.9992 42.6006 27.4583 42.6842 27.9386C42.7679 28.4188 42.7561 28.9108 42.6495 29.3865L42.6184 29.3993C41.6869 29.785 40.6588 29.8729 39.6753 29.651C39.647 29.6447 39.6187 29.6381 39.5905 29.6312Z" fill="#2F2E41"/>
<path d="M34.6527 33.3621L33.7236 31.4648C33.616 31.2926 33.566 31.0907 33.5811 30.8882C33.6183 30.69 33.8508 30.521 34.0238 30.6245C34.1844 30.7205 35.7444 28.4407 35.9269 28.4821C36.116 28.525 36.2343 28.2865 36.2791 28.0978C36.4487 27.3827 35.6934 28.0222 35.6554 27.2883C35.6174 26.5543 34.7332 26.98 34.1548 26.5265C33.5765 26.073 32.6654 26.0161 32.1319 26.5216C31.7363 26.8964 31.619 27.4722 31.5396 28.0113C31.3554 29.2623 31.2669 30.5256 31.2749 31.7901C31.2769 32.1007 31.3044 32.4535 31.5467 32.6478C31.6832 32.7407 31.8393 32.801 32.0028 32.824L33.9902 33.2588" fill="#2F2E41"/>
<path d="M33.5189 25.7995C34.5576 25.7995 35.3996 24.9575 35.3996 23.9188C35.3996 22.8801 34.5576 22.0381 33.5189 22.0381C32.4802 22.0381 31.6382 22.8801 31.6382 23.9188C31.6382 24.9575 32.4802 25.7995 33.5189 25.7995Z" fill="#2F2E41"/>
<path d="M64.0396 49.0816V65.8232C64.0397 66.0366 64.1245 66.2411 64.2754 66.392C64.4263 66.5428 64.6308 66.6277 64.8442 66.6278H89.6536C89.8669 66.6277 90.0715 66.5428 90.2223 66.392C90.3732 66.2411 90.458 66.0366 90.4582 65.8232V49.0816C90.4577 48.8684 90.3727 48.6641 90.2219 48.5135C90.0711 48.3628 89.8667 48.2781 89.6536 48.2778H64.8442C64.631 48.2781 64.4266 48.3628 64.2758 48.5135C64.125 48.6641 64.0401 48.8684 64.0396 49.0816Z" fill="#3F3D56"/>
<path d="M64.6216 49.2898V65.6166C64.6218 65.7306 64.6671 65.8399 64.7477 65.9205C64.8284 66.0011 64.9376 66.0465 65.0516 66.0466H89.4471C89.5611 66.0465 89.6703 66.0011 89.7509 65.9205C89.8315 65.8399 89.8769 65.7306 89.8771 65.6166V49.2898C89.8771 49.1757 89.8318 49.0662 89.7512 48.9854C89.6706 48.9046 89.5612 48.8591 89.4471 48.8589H65.0516C64.9375 48.8591 64.8281 48.9046 64.7475 48.9854C64.6669 49.0662 64.6216 49.1757 64.6216 49.2898Z" fill="#FCD20F"/>
<path d="M63.5206 69.088C63.566 69.145 63.6238 69.1909 63.6895 69.2224C63.7553 69.2539 63.8273 69.27 63.9002 69.2696H90.4652C90.5379 69.2696 90.6096 69.2533 90.6751 69.222C90.7407 69.1907 90.7985 69.1452 90.8442 69.0888C90.89 69.0323 90.9226 68.9664 90.9397 68.8958C90.9568 68.8252 90.9579 68.7517 90.943 68.6806L90.5307 66.7218C90.5136 66.6419 90.4768 66.5676 90.4236 66.5056C90.3705 66.4435 90.3026 66.3958 90.2263 66.3667C90.171 66.345 90.1122 66.3339 90.0528 66.334H64.3109C64.2516 66.3339 64.1927 66.345 64.1375 66.3667C64.0611 66.3958 63.9933 66.4435 63.9401 66.5056C63.887 66.5676 63.8502 66.6419 63.8331 66.7218L63.4207 68.6806C63.4061 68.7516 63.4074 68.8251 63.4247 68.8955C63.4419 68.966 63.4747 69.0318 63.5206 69.088Z" fill="#2F2E41"/>
<path d="M89.1414 67.1777H89.7689C89.8216 67.1777 89.8643 67.135 89.8643 67.0824V66.7822C89.8643 66.7295 89.8216 66.6868 89.7689 66.6868H89.1414C89.0888 66.6868 89.0461 66.7295 89.0461 66.7822V67.0824C89.0461 67.135 89.0888 67.1777 89.1414 67.1777Z" fill="#3F3D56"/>
<path d="M87.5052 67.1777H88.1327C88.1853 67.1777 88.228 67.135 88.228 67.0824V66.7822C88.228 66.7295 88.1853 66.6868 88.1327 66.6868H87.5052C87.4525 66.6868 87.4098 66.7295 87.4098 66.7822V67.0824C87.4098 67.135 87.4525 67.1777 87.5052 67.1777Z" fill="#3F3D56"/>
<path d="M85.869 67.1777H86.4964C86.5491 67.1777 86.5918 67.135 86.5918 67.0824V66.7822C86.5918 66.7295 86.5491 66.6868 86.4964 66.6868H85.869C85.8163 66.6868 85.7736 66.7295 85.7736 66.7822V67.0824C85.7736 67.135 85.8163 67.1777 85.869 67.1777Z" fill="#3F3D56"/>
<path d="M84.2318 67.1777H84.8592C84.9119 67.1777 84.9546 67.135 84.9546 67.0824V66.7822C84.9546 66.7295 84.9119 66.6868 84.8592 66.6868H84.2318C84.1791 66.6868 84.1364 66.7295 84.1364 66.7822V67.0824C84.1364 67.135 84.1791 67.1777 84.2318 67.1777Z" fill="#3F3D56"/>
<path d="M82.5955 67.1777H83.223C83.2757 67.1777 83.3184 67.135 83.3184 67.0824V66.7822C83.3184 66.7295 83.2757 66.6868 83.223 66.6868H82.5955C82.5429 66.6868 82.5002 66.7295 82.5002 66.7822V67.0824C82.5002 67.135 82.5429 67.1777 82.5955 67.1777Z" fill="#3F3D56"/>
<path d="M80.9593 67.1777H81.5868C81.6394 67.1777 81.6821 67.135 81.6821 67.0824V66.7822C81.6821 66.7295 81.6394 66.6868 81.5868 66.6868H80.9593C80.9066 66.6868 80.8639 66.7295 80.8639 66.7822V67.0824C80.8639 67.135 80.9066 67.1777 80.9593 67.1777Z" fill="#3F3D56"/>
<path d="M79.3226 67.1777H79.95C80.0027 67.1777 80.0454 67.135 80.0454 67.0824V66.7822C80.0454 66.7295 80.0027 66.6868 79.95 66.6868H79.3226C79.2699 66.6868 79.2272 66.7295 79.2272 66.7822V67.0824C79.2272 67.135 79.2699 67.1777 79.3226 67.1777Z" fill="#3F3D56"/>
<path d="M77.6864 67.1777H78.3138C78.3665 67.1777 78.4092 67.135 78.4092 67.0824V66.7822C78.4092 66.7295 78.3665 66.6868 78.3138 66.6868H77.6864C77.6337 66.6868 77.591 66.7295 77.591 66.7822V67.0824C77.591 67.135 77.6337 67.1777 77.6864 67.1777Z" fill="#3F3D56"/>
<path d="M76.0501 67.1777H76.6776C76.7302 67.1777 76.7729 67.135 76.7729 67.0824V66.7822C76.7729 66.7295 76.7302 66.6868 76.6776 66.6868H76.0501C75.9975 66.6868 75.9548 66.7295 75.9548 66.7822V67.0824C75.9548 67.135 75.9975 67.1777 76.0501 67.1777Z" fill="#3F3D56"/>
<path d="M74.4139 67.1777H75.0414C75.094 67.1777 75.1367 67.135 75.1367 67.0824V66.7822C75.1367 66.7295 75.094 66.6868 75.0414 66.6868H74.4139C74.3612 66.6868 74.3185 66.7295 74.3185 66.7822V67.0824C74.3185 67.135 74.3612 67.1777 74.4139 67.1777Z" fill="#3F3D56"/>
<path d="M72.7777 67.1777H73.4051C73.4578 67.1777 73.5005 67.135 73.5005 67.0824V66.7822C73.5005 66.7295 73.4578 66.6868 73.4051 66.6868H72.7777C72.725 66.6868 72.6823 66.7295 72.6823 66.7822V67.0824C72.6823 67.135 72.725 67.1777 72.7777 67.1777Z" fill="#3F3D56"/>
<path d="M71.1414 67.1777H71.7689C71.8216 67.1777 71.8643 67.135 71.8643 67.0824V66.7822C71.8643 66.7295 71.8216 66.6868 71.7689 66.6868H71.1414C71.0888 66.6868 71.0461 66.7295 71.0461 66.7822V67.0824C71.0461 67.135 71.0888 67.1777 71.1414 67.1777Z" fill="#3F3D56"/>
<path d="M69.5052 67.1777H70.1327C70.1853 67.1777 70.228 67.135 70.228 67.0824V66.7822C70.228 66.7295 70.1853 66.6868 70.1327 66.6868H69.5052C69.4525 66.6868 69.4098 66.7295 69.4098 66.7822V67.0824C69.4098 67.135 69.4525 67.1777 69.5052 67.1777Z" fill="#3F3D56"/>
<path d="M67.869 67.1777H68.4964C68.5491 67.1777 68.5918 67.135 68.5918 67.0824V66.7822C68.5918 66.7295 68.5491 66.6868 68.4964 66.6868H67.869C67.8163 66.6868 67.7736 66.7295 67.7736 66.7822V67.0824C67.7736 67.135 67.8163 67.1777 67.869 67.1777Z" fill="#3F3D56"/>
<path d="M66.2327 67.1777H66.8602C66.9129 67.1777 66.9556 67.135 66.9556 67.0824V66.7822C66.9556 66.7295 66.9129 66.6868 66.8602 66.6868H66.2327C66.1801 66.6868 66.1374 66.7295 66.1374 66.7822V67.0824C66.1374 67.135 66.1801 67.1777 66.2327 67.1777Z" fill="#3F3D56"/>
<path d="M64.5965 67.1777H65.224C65.2766 67.1777 65.3193 67.135 65.3193 67.0824V66.7822C65.3193 66.7295 65.2766 66.6868 65.224 66.6868H64.5965C64.5438 66.6868 64.5011 66.7295 64.5011 66.7822V67.0824C64.5011 67.135 64.5438 67.1777 64.5965 67.1777Z" fill="#3F3D56"/>
<path d="M89.1614 67.9961H89.7889C89.8416 67.9961 89.8843 67.9534 89.8843 67.9007V67.6006C89.8843 67.5479 89.8416 67.5052 89.7889 67.5052H89.1614C89.1088 67.5052 89.0661 67.5479 89.0661 67.6006V67.9007C89.0661 67.9534 89.1088 67.9961 89.1614 67.9961Z" fill="#3F3D56"/>
<path d="M87.5252 67.9961H88.1527C88.2053 67.9961 88.248 67.9534 88.248 67.9007V67.6006C88.248 67.5479 88.2053 67.5052 88.1527 67.5052H87.5252C87.4725 67.5052 87.4298 67.5479 87.4298 67.6006V67.9007C87.4298 67.9534 87.4725 67.9961 87.5252 67.9961Z" fill="#3F3D56"/>
<path d="M85.8875 67.9961H86.515C86.5677 67.9961 86.6104 67.9534 86.6104 67.9007V67.6006C86.6104 67.5479 86.5677 67.5052 86.515 67.5052H85.8875C85.8349 67.5052 85.7922 67.5479 85.7922 67.6006V67.9007C85.7922 67.9534 85.8349 67.9961 85.8875 67.9961Z" fill="#3F3D56"/>
<path d="M84.2513 67.9961H84.8788C84.9314 67.9961 84.9741 67.9534 84.9741 67.9007V67.6006C84.9741 67.5479 84.9314 67.5052 84.8788 67.5052H84.2513C84.1986 67.5052 84.1559 67.5479 84.1559 67.6006V67.9007C84.1559 67.9534 84.1986 67.9961 84.2513 67.9961Z" fill="#3F3D56"/>
<path d="M82.6151 67.9961H83.2425C83.2952 67.9961 83.3379 67.9534 83.3379 67.9007V67.6006C83.3379 67.5479 83.2952 67.5052 83.2425 67.5052H82.6151C82.5624 67.5052 82.5197 67.5479 82.5197 67.6006V67.9007C82.5197 67.9534 82.5624 67.9961 82.6151 67.9961Z" fill="#3F3D56"/>
<path d="M80.9788 67.9961H81.6063C81.659 67.9961 81.7017 67.9534 81.7017 67.9007V67.6006C81.7017 67.5479 81.659 67.5052 81.6063 67.5052H80.9788C80.9262 67.5052 80.8835 67.5479 80.8835 67.6006V67.9007C80.8835 67.9534 80.9262 67.9961 80.9788 67.9961Z" fill="#3F3D56"/>
<path d="M79.3426 67.9961H79.9701C80.0227 67.9961 80.0654 67.9534 80.0654 67.9007V67.6006C80.0654 67.5479 80.0227 67.5052 79.9701 67.5052H79.3426C79.2899 67.5052 79.2472 67.5479 79.2472 67.6006V67.9007C79.2472 67.9534 79.2899 67.9961 79.3426 67.9961Z" fill="#3F3D56"/>
<path d="M77.7064 67.9961H78.3338C78.3865 67.9961 78.4292 67.9534 78.4292 67.9007V67.6006C78.4292 67.5479 78.3865 67.5052 78.3338 67.5052H77.7064C77.6537 67.5052 77.611 67.5479 77.611 67.6006V67.9007C77.611 67.9534 77.6537 67.9961 77.7064 67.9961Z" fill="#3F3D56"/>
<path d="M76.0701 67.9961H76.6976C76.7503 67.9961 76.793 67.9534 76.793 67.9007V67.6006C76.793 67.5479 76.7503 67.5052 76.6976 67.5052H76.0701C76.0175 67.5052 75.9748 67.5479 75.9748 67.6006V67.9007C75.9748 67.9534 76.0175 67.9961 76.0701 67.9961Z" fill="#3F3D56"/>
<path d="M74.4339 67.9961H75.0614C75.114 67.9961 75.1567 67.9534 75.1567 67.9007V67.6006C75.1567 67.5479 75.114 67.5052 75.0614 67.5052H74.4339C74.3813 67.5052 74.3386 67.5479 74.3386 67.6006V67.9007C74.3386 67.9534 74.3813 67.9961 74.4339 67.9961Z" fill="#3F3D56"/>
<path d="M72.7977 67.9961H73.4251C73.4778 67.9961 73.5205 67.9534 73.5205 67.9007V67.6006C73.5205 67.5479 73.4778 67.5052 73.4251 67.5052H72.7977C72.745 67.5052 72.7023 67.5479 72.7023 67.6006V67.9007C72.7023 67.9534 72.745 67.9961 72.7977 67.9961Z" fill="#3F3D56"/>
<path d="M71.161 67.9961H71.7884C71.8411 67.9961 71.8838 67.9534 71.8838 67.9007V67.6006C71.8838 67.5479 71.8411 67.5052 71.7884 67.5052H71.161C71.1083 67.5052 71.0656 67.5479 71.0656 67.6006V67.9007C71.0656 67.9534 71.1083 67.9961 71.161 67.9961Z" fill="#3F3D56"/>
<path d="M69.5238 67.9961H70.1512C70.2039 67.9961 70.2466 67.9534 70.2466 67.9007V67.6006C70.2466 67.5479 70.2039 67.5052 70.1512 67.5052H69.5238C69.4711 67.5052 69.4284 67.5479 69.4284 67.6006V67.9007C69.4284 67.9534 69.4711 67.9961 69.5238 67.9961Z" fill="#3F3D56"/>
<path d="M67.8875 67.9961H68.515C68.5677 67.9961 68.6104 67.9534 68.6104 67.9007V67.6006C68.6104 67.5479 68.5677 67.5052 68.515 67.5052H67.8875C67.8349 67.5052 67.7922 67.5479 67.7922 67.6006V67.9007C67.7922 67.9534 67.8349 67.9961 67.8875 67.9961Z" fill="#3F3D56"/>
<path d="M66.2513 67.9961H66.8788C66.9314 67.9961 66.9741 67.9534 66.9741 67.9007V67.6006C66.9741 67.5479 66.9314 67.5052 66.8788 67.5052H66.2513C66.1986 67.5052 66.1559 67.5479 66.1559 67.6006V67.9007C66.1559 67.9534 66.1986 67.9961 66.2513 67.9961Z" fill="#3F3D56"/>
<path d="M64.6151 67.9961H65.2425C65.2952 67.9961 65.3379 67.9534 65.3379 67.9007V67.6006C65.3379 67.5479 65.2952 67.5052 65.2425 67.5052H64.6151C64.5624 67.5052 64.5197 67.5479 64.5197 67.6006V67.9007C64.5197 67.9534 64.5624 67.9961 64.6151 67.9961Z" fill="#3F3D56"/>
<path d="M75.5791 68.9775H81.9339C81.9866 68.9775 82.0293 68.9348 82.0293 68.8822V68.582C82.0293 68.5293 81.9866 68.4866 81.9339 68.4866H75.5791C75.5265 68.4866 75.4838 68.5293 75.4838 68.582V68.8822C75.4838 68.9348 75.5265 68.9775 75.5791 68.9775Z" fill="#3F3D56"/>
<path d="M77.3002 63.5316C80.5368 63.5316 83.1605 60.9079 83.1605 57.6713C83.1605 54.4348 80.5368 51.811 77.3002 51.811C74.0637 51.811 71.4399 54.4348 71.4399 57.6713C71.4399 60.9079 74.0637 63.5316 77.3002 63.5316Z" fill="white"/>
<path d="M75.9845 59.996C75.9081 59.9978 75.8324 59.9801 75.7646 59.9448C75.6921 59.908 75.631 59.8522 75.5878 59.7834C75.5446 59.7145 75.521 59.6352 75.5196 59.5539L75.423 55.8128C75.4209 55.7317 75.4406 55.6515 75.4801 55.5807C75.5196 55.5098 75.5774 55.4508 75.6475 55.4099C75.7176 55.369 75.7974 55.3477 75.8785 55.3482C75.9597 55.3486 76.0392 55.3709 76.1088 55.4126L79.7059 57.1916C79.7713 57.2308 79.8257 57.2859 79.8642 57.3518C79.9026 57.4176 79.9238 57.4922 79.9258 57.5684C79.9277 57.6446 79.9104 57.7201 79.8754 57.7879C79.8404 57.8557 79.7889 57.9135 79.7256 57.9561L76.2251 59.9182C76.154 59.9666 76.0705 59.9936 75.9845 59.996Z" fill="#FCD20F"/>
<path d="M99.118 83.3418L97.2505 82.509L99.578 74.7344L102.334 75.9635L99.118 83.3418Z" fill="#FFB8B8"/>
<path d="M99.6732 82.0675L97.6527 81.1645L97.3358 81.0225L96.8688 82.2628L93.4003 83.1238C93.2288 83.1662 93.0754 83.2623 92.9624 83.3982C92.8495 83.534 92.7829 83.7024 92.7724 83.8787C92.762 84.0551 92.8082 84.2302 92.9044 84.3784C93.0005 84.5266 93.1416 84.6402 93.3069 84.7025L96.7529 86.0026L97.8091 85L97.5785 86.314L98.8764 86.804L100.164 82.2875L99.6732 82.0675Z" fill="#2F2E41"/>
<path d="M102.545 55.6127C102.779 55.774 103.046 55.8821 103.326 55.9293C103.606 55.9765 103.893 55.9617 104.167 55.886C104.441 55.8102 104.694 55.6754 104.91 55.4909C105.127 55.3064 105.3 55.0768 105.417 54.8183L112.293 55.4614L110.605 52.2947L104.334 52.1694C103.887 52.0005 103.393 52.0015 102.946 52.1723C102.5 52.3432 102.131 52.672 101.91 53.0964C101.69 53.5208 101.633 54.0114 101.75 54.4752C101.867 54.9389 102.15 55.3437 102.545 55.6127Z" fill="#FFB6B6"/>
<path d="M109.518 55.3961L119.032 56.4627L119.065 56.4208C119.128 56.3406 125.353 48.3714 126.399 46.4743C127.043 45.3346 127.277 44.009 127.064 42.7177L127.057 42.6861L127.032 42.6652C126.525 42.2401 125.888 42.0006 125.226 41.9861C124.564 41.9715 123.918 42.1829 123.392 42.5854C120.866 44.5418 118.829 47.0586 117.442 49.9371L116.656 51.5754L109.518 52.2794V55.3961Z" fill="#B10C1F"/>
<path d="M130.851 60.3541L131.126 60.9743C131.211 61.5451 131.544 60.9773 131.515 61.4613C132.931 62.6274 129.051 70.4217 126.135 70.1044C124.783 70.5291 123.19 70.7024 121.524 70.7141C121.362 70.7155 121.2 70.7153 121.037 70.7135C120.933 70.7124 120.614 70.3267 120.509 70.3244C120.196 70.3174 120.096 70.689 119.781 70.6722C119.531 70.6591 119.072 70.8717 119.032 70.6247C118.945 70.0925 118.784 70.2132 118.594 70.5897C118.462 70.8508 118.012 70.5364 117.722 70.5053C116.053 70.3257 114.437 70.0522 113.04 69.7713C112.52 69.6681 112.031 69.5629 111.581 69.4606C110.729 69.2688 110.016 69.0896 109.5 68.9532C108.918 68.8013 108.587 68.7029 108.587 68.7029L104.439 72.0775L101.225 79.09C100.978 79.1124 98.3032 78.4082 98.3032 78.4082C98.018 78.1483 97.8173 77.8088 97.7269 77.4337C97.6366 77.0585 97.6609 76.6649 97.7965 76.3037C97.9602 75.8138 99.1192 72.1916 100.332 69.0292C100.691 68.0903 101.063 67.1377 101.446 66.1901C101.76 65.4119 102.079 64.6366 102.402 63.8721C102.964 62.5465 105.68 61.8316 108.877 61.4567C109.04 61.4382 109.204 61.4196 109.368 61.4021C110.998 61.2307 112.726 61.1421 114.343 61.1012C115.152 61.0807 115.934 61.0729 116.66 61.0719C116.895 61.0719 117.123 61.0726 117.345 61.0739H117.346C117.945 61.0768 118.496 61.0856 118.981 61.0953C119.076 61.0973 119.167 61.1002 119.257 61.1021H119.258C119.318 61.1031 119.378 61.1051 119.436 61.106C120.497 61.1333 121.147 61.1664 121.147 61.1664L121.094 59.3186L121.451 58.788L121.5 58.4082V58.4072L121.506 58.3595L121.546 58.3585L122.247 58.3449L128.141 58.2299L130.652 58.1235L130.851 60.3541Z" fill="#2F2E41"/>
<path d="M121.888 73.0396L121.237 74.9778L113.276 73.4006L114.237 70.54L121.888 73.0396Z" fill="#FFB8B8"/>
<path d="M120.566 72.6079L119.86 74.7052L119.749 75.0341L121.028 75.381L122.215 78.7518C122.273 78.9185 122.384 79.0621 122.53 79.1616C122.675 79.2612 122.849 79.3114 123.026 79.305C123.203 79.2986 123.372 79.236 123.511 79.1261C123.649 79.0163 123.749 78.8651 123.795 78.6947L124.762 75.1405L123.663 74.1845L124.993 74.2891L125.357 72.9505L120.739 72.0981L120.566 72.6079Z" fill="#2F2E41"/>
<path d="M116.714 70.9392C116.624 71.1937 116.891 70.8437 116.794 71.096C116.423 72.0739 115.733 73.7401 115.598 74.0093C115.545 73.9989 105.535 72.6062 104.185 72.2135L106.266 66.9359L106.5 66.3442L109.948 67.5736L111.129 68.5835L113.708 68.914L116.714 70.9392Z" fill="#2F2E41"/>
<path d="M123.193 37.0519C125.809 37.0519 127.929 34.9316 127.929 32.316C127.929 29.7004 125.809 27.5801 123.193 27.5801C120.578 27.5801 118.458 29.7004 118.458 32.316C118.458 34.9316 120.578 37.0519 123.193 37.0519Z" fill="#FFB6B6"/>
<path d="M105.237 57.5159C105.585 57.7343 104.904 58.2598 104.493 58.2598C104.296 58.2598 104.106 58.1814 103.967 58.0419C103.827 57.9024 103.749 57.7132 103.749 57.5159C103.749 57.105 104.21 56.1287 104.4 56.493C104.452 56.5924 104.783 57.2308 105.237 57.5159Z" fill="#C81025"/>
<path d="M106.446 57.5159C106.794 57.7343 106.113 58.2598 105.702 58.2598C105.505 58.2598 105.315 58.1814 105.176 58.0419C105.036 57.9024 104.958 57.7132 104.958 57.5159C104.958 57.105 105.419 56.1287 105.609 56.493C105.661 56.5924 105.992 57.2308 106.446 57.5159Z" fill="#C81025"/>
<path d="M105.868 57.3488C105.474 57.231 105.991 56.5431 106.387 56.4336C106.577 56.3811 106.78 56.4062 106.952 56.5035C107.123 56.6008 107.249 56.7623 107.302 56.9525C107.411 57.3485 107.227 58.4123 106.947 58.1118C106.87 58.0298 106.381 57.5026 105.868 57.3488Z" fill="#C81025"/>
<path d="M110.537 57.5159C110.885 57.7343 110.204 58.2598 109.793 58.2598C109.596 58.2598 109.407 58.1814 109.267 58.0419C109.128 57.9024 109.049 57.7132 109.049 57.5159C109.049 57.105 109.51 56.1287 109.7 56.493C109.752 56.5924 110.083 57.2308 110.537 57.5159Z" fill="#C81025"/>
<path d="M111.747 57.5159C112.095 57.7343 111.414 58.2598 111.003 58.2598C110.805 58.2598 110.616 58.1814 110.477 58.0419C110.337 57.9024 110.259 57.7132 110.259 57.5159C110.259 57.105 110.72 56.1287 110.91 56.493C110.962 56.5924 111.293 57.2308 111.747 57.5159Z" fill="#C81025"/>
<path d="M111.169 57.3488C110.775 57.231 111.291 56.5431 111.687 56.4336C111.878 56.3811 112.081 56.4062 112.252 56.5035C112.424 56.6008 112.55 56.7623 112.603 56.9525C112.712 57.3485 112.528 58.4123 112.248 58.1118C112.171 58.0298 111.682 57.5026 111.169 57.3488Z" fill="#C81025"/>
<path d="M102.614 57.3488C102.22 57.231 102.737 56.5431 103.133 56.4336C103.323 56.3811 103.526 56.4062 103.698 56.5035C103.869 56.6008 103.995 56.7623 104.048 56.9525C104.157 57.3485 103.973 58.4123 103.693 58.1118C103.616 58.0298 103.127 57.5026 102.614 57.3488Z" fill="#C81025"/>
<path d="M107.904 58.1442C107.738 58.5199 107.12 57.9211 107.061 57.5145C107.047 57.4178 107.053 57.3193 107.077 57.2246C107.101 57.1299 107.143 57.0409 107.202 56.9627C107.26 56.8844 107.333 56.8184 107.417 56.7685C107.501 56.7186 107.594 56.6857 107.691 56.6717C108.098 56.6129 109.13 56.9293 108.797 57.1695C108.706 57.235 108.121 57.654 107.904 58.1442Z" fill="#C81025"/>
<path d="M109.33 56.8983C109.43 56.4996 110.141 56.9829 110.269 57.3733C110.3 57.4661 110.312 57.564 110.304 57.6614C110.297 57.7588 110.27 57.8538 110.226 57.941C110.182 58.0282 110.121 58.1058 110.047 58.1695C109.973 58.2331 109.887 58.2816 109.794 58.312C109.404 58.4401 108.333 58.3066 108.619 58.0125C108.698 57.9322 109.201 57.4186 109.33 56.8983Z" fill="#C81025"/>
<path d="M108.772 56.3402C108.871 55.9415 109.583 56.4248 109.711 56.8152C109.742 56.908 109.753 57.0059 109.746 57.1033C109.739 57.2007 109.712 57.2957 109.668 57.3829C109.624 57.4701 109.563 57.5477 109.489 57.6114C109.415 57.675 109.329 57.7235 109.236 57.7539C108.846 57.882 107.774 57.7485 108.061 57.4543C108.14 57.3741 108.643 56.8605 108.772 56.3402Z" fill="#C81025"/>
<path d="M105.311 54.5837C105.145 54.9593 104.527 54.3606 104.469 53.9539C104.455 53.8573 104.46 53.7588 104.484 53.6641C104.508 53.5694 104.55 53.4804 104.609 53.4021C104.667 53.3239 104.741 53.2579 104.825 53.208C104.909 53.158 105.002 53.1251 105.098 53.1112C105.505 53.0523 106.537 53.3687 106.204 53.6089C106.113 53.6745 105.528 54.0935 105.311 54.5837Z" fill="#C81025"/>
<path d="M101.697 60.0701L102.571 62.9195C102.663 63.413 102.924 63.8588 103.31 64.1798C103.696 64.5007 104.182 64.6764 104.684 64.6765H110.867C111.377 64.678 111.871 64.4976 112.259 64.1678C112.648 63.838 112.906 63.3803 112.988 62.8771L112.99 62.8678L113.764 60.0311C113.811 59.7441 113.794 59.4503 113.716 59.1702C113.638 58.8901 113.5 58.6303 113.312 58.4088C113.123 58.1873 112.889 58.0094 112.625 57.8873C112.361 57.7653 112.074 57.7021 111.783 57.7021H103.671C103.377 57.7021 103.087 57.7668 102.82 57.8915C102.554 58.0162 102.318 58.198 102.13 58.4239C101.942 58.6498 101.805 58.9144 101.73 59.1988C101.656 59.4833 101.644 59.7807 101.697 60.0701Z" fill="#E6E6E6"/>
<path d="M121.939 38.4566C121.939 38.4566 125.355 38.0148 126.396 38.4311C126.766 38.5792 127.136 39.9393 127.831 40.3444C127.843 40.3517 127.856 40.359 127.868 40.3661C128.516 40.7342 129.05 41.2734 129.412 41.9247C129.774 42.576 129.949 43.3143 129.92 44.0588C129.752 47.4085 130.009 50.7661 130.685 54.0512C130.735 54.2945 130.787 54.541 130.841 54.7906C130.905 55.0839 130.973 55.3818 131.045 55.6843C131.178 56.2486 131.326 56.8307 131.488 57.4305C131.572 57.7428 131.076 58.5474 131.168 58.8705C131.23 59.0875 131.294 59.307 131.359 59.5291C131.557 60.196 132.355 60.3995 132.588 61.1164C132.591 61.3456 132.534 61.5717 132.425 61.773C132.315 61.9743 132.156 62.1441 131.961 62.2661C131.767 62.3881 131.545 62.4582 131.316 62.4697C131.087 62.4813 130.859 62.4339 130.654 62.332L118.583 61.3908L119.732 59.6103L118.952 58.539L119.537 58.1494L119.829 57.078L118.905 53.4693L117.582 50.4357C117.125 49.3894 117.064 48.2131 117.409 47.125C117.754 46.0369 118.483 45.1111 119.459 44.5193L120.975 40.5038L121.939 38.4566Z" fill="#C81025"/>
<path d="M113.146 63.1946C113.234 62.9244 113.38 62.6768 113.574 62.4691C113.768 62.2615 114.005 62.0988 114.269 61.9927C114.532 61.8866 114.816 61.8395 115.099 61.8549C115.383 61.8702 115.66 61.9475 115.91 62.0814L120.982 57.3945L121.564 60.9355L116.659 64.8434C116.406 65.2494 116.013 65.5485 115.555 65.6841C115.096 65.8198 114.603 65.7824 114.17 65.5792C113.737 65.3759 113.394 65.0209 113.205 64.5814C113.017 64.142 112.996 63.6485 113.146 63.1946Z" fill="#FFB6B6"/>
<path d="M121.184 61.4754L128.594 56.0069L128.618 56.0072C128.61 55.9057 127.761 45.8286 127.24 43.7261C126.937 42.4526 126.208 41.3209 125.174 40.5188L125.147 40.5005L125.115 40.502C124.454 40.5348 123.824 40.7919 123.329 41.2309C122.833 41.6699 122.503 42.2645 122.391 42.9168C121.867 46.0687 122.083 49.2992 123.022 52.3533L123.558 54.09L120.218 57.1125L121.184 61.4754Z" fill="#C81025"/>
<path d="M138.393 39.2849C137.846 40.0594 137.049 40.6209 136.135 40.8744C135.77 40.9832 135.392 41.0473 135.011 41.0653C134.964 40.6345 134.852 40.2134 134.677 39.8167C134.695 40.2389 134.636 40.6609 134.504 41.0623C133.932 41.0299 133.372 40.8801 132.861 40.6221C132.358 40.3693 131.921 40.0028 131.585 39.5517C131.249 39.1007 131.022 38.5775 130.924 38.0236C130.723 36.7282 131.31 35.4562 131.523 34.1628C131.736 32.8694 131.336 31.2312 130.069 30.8913C129.105 30.6322 129.213 30.7442 128.412 31.3393C129.246 32.5722 126.166 37.0901 124.905 36.6961C124.193 36.4734 123.737 35.8195 123.59 35.8195C122.599 37.5259 124.464 40.401 122.585 40.9981L122.739 40.8432C123.874 39.4475 121.502 36.4935 122.637 35.0978C122.954 34.7073 123.291 34.2446 123.197 33.7508C123.108 33.2814 122.363 33.033 122.145 33.4187C122.538 32.5198 121.958 31.3198 120.999 31.089C120.147 30.8835 120.162 31.1367 119.307 31.2468C119.251 30.8772 119.147 30.5167 118.996 30.1745C119.012 30.5432 118.969 30.9121 118.869 31.2672C118.567 31.2613 118.275 31.1559 118.039 30.9673C117.342 30.4053 117.483 29.2249 118.105 28.5811C118.729 27.9373 119.655 27.7055 120.538 27.5555C120.795 25.7672 125.729 25.5807 126.383 27.3675C126.661 26.0332 128.332 25.3407 129.63 25.7546C130.928 26.1686 131.829 27.3811 132.304 28.659C132.778 29.9358 132.91 31.3101 133.203 32.6405C133.495 33.971 133.989 35.3257 135.005 36.2325C136.022 37.1383 137.679 37.4383 138.75 36.5967C138.906 37.0414 138.955 37.5165 138.893 37.9835C138.831 38.4505 138.659 38.8964 138.393 39.2849Z" fill="#2F2E41"/>
<path d="M38.0846 35.4306C37.9176 35.8077 37.2977 35.2067 37.2387 34.7985C37.2103 34.6025 37.261 34.4032 37.3795 34.2446C37.4981 34.0859 37.6748 33.9809 37.8708 33.9525C38.279 33.8934 39.3152 34.211 38.9806 34.4522C38.8892 34.518 38.3026 34.9386 38.0846 35.4306Z" fill="#C81025"/>
<path d="M38.4025 37.3331L38.9945 43.0782L41.7706 43.687C41.7706 43.687 40.2557 37.0028 40.1721 36.8032C40.3186 36.5641 40.3891 36.2861 40.3742 36.0061C40.3593 35.7261 40.2597 35.4572 40.0887 35.2349C39.9176 35.0127 39.6831 34.8477 39.4162 34.7616C39.1493 34.6756 38.8626 34.6726 38.594 34.753C38.3253 34.8335 38.0875 34.9936 37.9118 35.2122C37.7362 35.4308 37.631 35.6975 37.6102 35.9772C37.5895 36.2568 37.6541 36.5362 37.7956 36.7783C37.9371 37.0204 38.1487 37.2139 38.4025 37.3331Z" fill="#FFB6B6"/>
<path d="M31.4352 38.2344C30.2205 38.593 34.6731 47.5315 40.8879 48.8847C41.3103 48.756 41.7013 48.5406 42.0357 48.2523C42.3702 47.964 42.6408 47.609 42.8302 47.2101C43.0197 46.8113 43.1238 46.3773 43.136 45.9358C43.1482 45.4944 43.0681 45.0553 42.9009 44.6466L41.0701 40.3647L38.4472 41.7412L38.6012 43.787L36.543 41.4919L32.3036 39.5615L31.4352 38.2344Z" fill="#002780"/>
</g>
</g>
<defs>
<clipPath id="clip0_603_608">
<rect width="179.6" height="110" fill="white"/>
</clipPath>
<clipPath id="clip1_603_608">
<rect width="165" height="64.7662" fill="white" transform="translate(-1 22.0376)"/>
</clipPath>
</defs>
</svg>
