<svg width="181" height="110" viewBox="0 0 181 110" fill="none" xmlns="http://www.w3.org/2000/svg">
<g clip-path="url(#clip0_603_724)">
<path d="M139.881 92.6081C142.994 89.6774 144.6 85.2871 142.927 81.5732C140.492 85.3103 136.484 88.2535 131.837 89.7165C130.027 90.2864 127.945 90.7564 126.961 92.1938C126.348 93.0881 126.304 94.2081 126.58 95.2208C126.856 96.2335 127.424 97.165 127.987 98.0838L127.99 98.3436C132.395 97.2228 136.768 95.5388 139.881 92.6081Z" fill="#F2F2F2"/>
<path d="M142.834 81.5934C142.309 84.8276 140.591 87.937 137.965 90.2811C137.395 90.8114 136.748 91.2524 136.046 91.5894C135.324 91.9093 134.537 92.0547 133.748 92.0141C133.005 91.9905 132.248 91.8915 131.511 92.0252C131.15 92.0887 130.805 92.2245 130.497 92.4243C130.19 92.6242 129.925 92.884 129.72 93.1883C129.232 93.9067 129.07 94.7348 128.943 95.5493C128.803 96.4537 128.674 97.395 128.079 98.173C128.007 98.2672 128.179 98.359 128.251 98.2649C129.287 96.9113 128.941 95.1815 129.64 93.7218C129.966 93.0407 130.53 92.4408 131.374 92.2351C132.112 92.0553 132.893 92.1567 133.645 92.1863C134.416 92.2353 135.188 92.1185 135.91 91.8438C136.629 91.5394 137.294 91.1209 137.879 90.6044C139.161 89.5089 140.257 88.2123 141.123 86.7654C142.084 85.1802 142.733 83.426 143.036 81.5971C143.054 81.4854 142.852 81.4824 142.834 81.5934Z" fill="white"/>
<path d="M138.865 89.5579C139.399 89.8894 140.024 90.0459 140.652 90.0058C141.279 89.9658 141.879 89.731 142.367 89.3342C142.46 89.2546 142.322 89.1261 142.229 89.2058C141.775 89.5759 141.217 89.7945 140.632 89.8308C140.048 89.8671 139.467 89.7193 138.97 89.4081C138.866 89.3409 138.761 89.4912 138.865 89.5579Z" fill="white"/>
<path d="M134.122 92.0691C134.018 91.5041 134.035 90.9235 134.172 90.3655C134.308 89.8075 134.561 89.2848 134.914 88.8317C134.986 88.7372 134.814 88.6455 134.742 88.7398C134.375 89.212 134.113 89.7565 133.972 90.3374C133.832 90.9183 133.816 91.5225 133.925 92.11C133.947 92.2218 134.144 92.1802 134.122 92.0691Z" fill="white"/>
<path d="M141.828 85.1327C141.607 85.054 141.41 84.9203 141.255 84.7441C141.101 84.5679 140.994 84.3552 140.945 84.1261C140.925 84.0141 140.728 84.0558 140.748 84.167C140.803 84.4198 140.922 84.6546 141.092 84.8495C141.262 85.0445 141.479 85.1935 141.722 85.2826C141.745 85.2942 141.771 85.2976 141.796 85.2923C141.822 85.2871 141.844 85.2734 141.861 85.2536C141.868 85.2438 141.872 85.2326 141.874 85.2208C141.876 85.209 141.876 85.1969 141.872 85.1854C141.869 85.1739 141.864 85.1632 141.856 85.1541C141.848 85.145 141.838 85.1377 141.828 85.1327Z" fill="white"/>
<path d="M128.165 77.3506C128.175 77.4208 128.185 77.491 128.194 77.5622C128.325 78.5052 128.368 79.4584 128.321 80.4093C128.319 80.4828 128.316 80.5573 128.311 80.6307C128.164 82.9442 127.534 85.2013 126.46 87.2558C126.023 88.0946 125.519 88.8964 124.952 89.6533C124.162 90.7095 123.208 91.8 122.876 92.9863C122.839 93.1092 122.812 93.2346 122.793 93.3614L127.625 98.3268C127.642 98.3333 127.659 98.3408 127.676 98.3474L127.859 98.5533C127.891 98.5156 127.924 98.476 127.957 98.4383C127.976 98.4166 127.994 98.3937 128.013 98.3719C128.026 98.357 128.038 98.3421 128.05 98.3293C128.054 98.3244 128.058 98.3194 128.061 98.3154C128.073 98.3026 128.083 98.2896 128.094 98.2778C128.279 98.0565 128.462 97.8337 128.644 97.6094C128.645 97.6085 128.645 97.6085 128.646 97.6064C130.027 95.8944 131.256 94.0671 132.127 92.1358C132.154 92.0777 132.181 92.0187 132.205 91.9583C132.59 91.0925 132.894 90.1933 133.115 89.2719C133.232 88.7716 133.321 88.2649 133.38 87.7544C133.529 86.4366 133.439 85.1027 133.113 83.8171C132.462 81.2414 130.871 78.875 128.358 77.4573C128.293 77.421 128.23 77.3859 128.165 77.3506Z" fill="#F2F2F2"/>
<path d="M128.103 77.4152C129.925 80.2721 130.708 83.6532 130.236 86.8984C130.151 87.6128 129.939 88.3063 129.611 88.9466C129.246 89.59 128.713 90.1226 128.07 90.4879C127.46 90.8577 126.787 91.1746 126.292 91.6668C126.048 91.9064 125.864 92.2003 125.756 92.5245C125.647 92.8487 125.617 93.194 125.668 93.532C125.776 94.3611 126.22 95.1071 126.684 95.8235C127.199 96.6189 127.748 97.438 127.812 98.3706C127.819 98.4836 128.021 98.4666 128.013 98.3538C127.902 96.7312 126.427 95.5313 125.973 94.0002C125.762 93.2858 125.797 92.5116 126.328 91.906C126.792 91.3765 127.486 91.0492 128.107 90.6794C128.742 90.3288 129.281 89.8281 129.678 89.2211C130.042 88.5993 130.284 87.9138 130.392 87.2013C130.656 85.6228 130.632 84.0096 130.321 82.4396C129.968 80.6157 129.27 78.8757 128.267 77.3124C128.204 77.2137 128.04 77.3172 128.103 77.4152Z" fill="white"/>
<path d="M130.453 85.8506C131.777 85.8385 132.906 84.976 133.095 83.8399C133.114 83.728 132.914 83.6976 132.896 83.8096C132.718 84.874 131.671 85.6643 130.434 85.6756C130.304 85.6768 130.324 85.8517 130.453 85.8506Z" fill="white"/>
<path d="M128.407 90.3357C127.95 89.971 127.571 89.5171 127.294 89.0015C127.017 88.4859 126.848 87.9195 126.796 87.3365C126.788 87.2235 126.587 87.2405 126.595 87.3533C126.65 87.96 126.827 88.5492 127.117 89.0852C127.406 89.6212 127.801 90.0928 128.279 90.4713C128.373 90.5493 128.502 90.4132 128.407 90.3357Z" fill="white"/>
<path d="M129.752 80.7677C129.508 80.8173 129.255 80.8124 129.013 80.7532C128.771 80.6941 128.544 80.5823 128.35 80.4257C128.256 80.3467 128.128 80.4829 128.221 80.5613C128.437 80.7335 128.687 80.8568 128.955 80.9226C129.222 80.9885 129.501 80.9953 129.772 80.9426C129.826 80.9321 129.868 80.8983 129.863 80.8467C129.858 80.822 129.844 80.8 129.823 80.7853C129.803 80.7706 129.777 80.7643 129.752 80.7677Z" fill="white"/>
<path d="M120.839 39.7316C123.127 39.7316 124.982 37.8771 124.982 35.5894C124.982 33.3018 123.127 31.4473 120.839 31.4473C118.552 31.4473 116.697 33.3018 116.697 35.5894C116.697 37.8771 118.552 39.7316 120.839 39.7316Z" fill="#A0616A"/>
<path d="M138.99 54.726C138.407 53.3745 137.608 52.1274 136.623 51.0341C137.457 52.3634 137.934 53.8856 138.007 55.4532C137.705 55.6418 137.389 55.8071 137.062 55.9476C136.078 56.36 135.03 56.5955 133.965 56.6432C133.391 54.7305 132.4 52.9688 131.063 51.4849C132.027 53.0208 132.511 54.8086 132.455 56.6207C131.267 56.518 130.096 56.2671 128.97 55.8739C127.28 55.2924 125.639 54.4239 124.47 53.0731C123.205 51.6111 122.581 49.6818 122.38 47.7585C122.179 45.8367 122.368 43.8968 122.559 41.9735C122.649 41.0569 121.886 40.0021 121.976 39.0855H122.036C122.437 38.5356 122.846 37.9721 123.043 37.32C123.238 36.6694 123.187 35.9016 122.738 35.3892C122.486 35.1215 122.168 34.9246 121.816 34.8182C121.783 34.7761 121.747 34.7356 121.71 34.695C121.029 33.9723 120.229 33.3734 119.343 32.9249C119.982 33.4073 120.409 33.9527 120.607 34.5162C120.054 34.3945 119.501 34.2733 118.948 34.1526C118.763 33.9565 118.569 33.77 118.365 33.5936C118.129 33.4026 117.88 33.2293 117.618 33.0752C117.903 33.326 118.124 33.6413 118.263 33.9948C117.552 33.816 116.841 33.547 116.472 32.9355C115.859 31.9242 116.587 30.5599 117.605 29.9558C118.345 29.5378 119.197 29.363 120.042 29.456C120.887 29.549 121.681 29.9052 122.312 30.4742C123.783 29.3909 125.878 29.4089 127.514 30.2188C128.595 30.7774 129.525 31.5869 130.228 32.5794C129.82 32.527 129.41 32.4984 128.999 32.4937C129.577 32.5784 130.128 32.7965 130.608 33.1308C130.82 33.4603 131.015 33.8009 131.191 34.1511C131.307 34.381 131.416 34.6139 131.519 34.8498C132.148 36.2832 132.558 37.8099 132.984 39.3184C133.48 41.0765 134.011 42.8465 134.94 44.4197C136.364 46.8119 138.61 48.6039 141.258 49.4609C141.479 51.4488 140.509 53.3932 138.99 54.726Z" fill="#2F2E41"/>
<path d="M129.377 99.6057L127.874 100.306L124.458 94.8392L126.678 93.8062L129.377 99.6057Z" fill="#A0616A"/>
<path d="M131.384 101.842L130.306 102.344L129.639 101.415L129.62 102.663L126.76 103.994C126.623 104.058 126.469 104.076 126.321 104.046C126.173 104.016 126.038 103.94 125.936 103.828C125.835 103.716 125.771 103.575 125.756 103.424C125.74 103.274 125.773 103.123 125.85 102.992L127.399 100.352L126.92 99.3225L129.389 98.3477L131.384 101.842Z" fill="#002780"/>
<path d="M114.284 101.187H112.625L111.836 94.7896H114.284V101.187Z" fill="#A0616A"/>
<path d="M115.158 104.06H113.969L113.757 102.937L113.213 104.06H110.058C109.907 104.06 109.76 104.011 109.638 103.922C109.516 103.832 109.426 103.706 109.381 103.562C109.336 103.417 109.339 103.262 109.388 103.119C109.437 102.976 109.531 102.853 109.655 102.767L112.174 101.027V99.8921L114.824 100.05L115.158 104.06Z" fill="#002780"/>
<path d="M121.944 52.7144L120.57 56.907L120.116 60.3057L112.816 58.0521L113.492 50.4683L115.01 48.9663L121.944 52.7144Z" fill="#A0616A"/>
<path d="M52.0647 13.5075C52.4718 12.8956 52.2309 12.0196 51.5265 11.551C50.8221 11.0824 49.9211 11.1986 49.514 11.8105C49.1069 12.4224 49.3479 13.2983 50.0522 13.767C50.7566 14.2356 51.6576 14.1194 52.0647 13.5075Z" fill="#FD6584"/>
<path d="M66.8694 64.4923C67.2765 63.8804 67.0356 63.0045 66.3312 62.5359C65.6268 62.0672 64.7258 62.1834 64.3187 62.7953C63.9116 63.4073 64.1525 64.2832 64.8569 64.7518C65.5613 65.2204 66.4623 65.1043 66.8694 64.4923Z" fill="#E6E6E6"/>
<path d="M25.3982 20.7673C25.8053 20.1553 25.5644 19.2794 24.86 18.8108C24.1556 18.3421 23.2546 18.4583 22.8475 19.0702C22.4404 19.6822 22.6814 20.5581 23.3857 21.0267C24.0901 21.4953 24.9911 21.3792 25.3982 20.7673Z" fill="#E6E6E6"/>
<path d="M77.6686 57.0418H27.5958C25.9474 57.0399 24.3671 56.3842 23.2015 55.2187C22.0359 54.0531 21.3803 52.4727 21.3784 50.8244V29.3007C21.3803 27.6523 22.0359 26.072 23.2015 24.9064C24.3671 23.7408 25.9474 23.0852 27.5958 23.0833C43.5737 18.6567 60.3314 19.0714 77.6686 23.0833C79.317 23.0852 80.8973 23.7408 82.0629 24.9064C83.2285 26.072 83.8841 27.6523 83.886 29.3007V50.8244C83.8841 52.4727 83.2284 54.0531 82.0629 55.2187C80.8973 56.3842 79.317 57.0399 77.6686 57.0418Z" fill="#F2F2F2"/>
<path d="M26.7123 51.5574C26.6925 51.5574 26.673 51.5535 26.6548 51.546C26.6365 51.5384 26.62 51.5274 26.606 51.5134C26.5921 51.4995 26.581 51.4829 26.5734 51.4647C26.5659 51.4464 26.562 51.4269 26.562 51.4072V28.7181C26.562 28.6783 26.5778 28.6401 26.606 28.6119C26.6342 28.5837 26.6724 28.5679 26.7123 28.5679C26.7521 28.5679 26.7903 28.5837 26.8185 28.6119C26.8467 28.6401 26.8625 28.6783 26.8625 28.7181V51.4072C26.8625 51.4269 26.8587 51.4464 26.8511 51.4647C26.8436 51.4829 26.8325 51.4995 26.8185 51.5134C26.8046 51.5274 26.788 51.5384 26.7698 51.546C26.7515 51.5535 26.732 51.5574 26.7123 51.5574Z" fill="white"/>
<path d="M78.8519 51.5574C78.8717 51.5574 78.8912 51.5535 78.9094 51.546C78.9277 51.5384 78.9442 51.5274 78.9582 51.5134C78.9721 51.4995 78.9832 51.4829 78.9908 51.4647C78.9983 51.4464 79.0022 51.4269 79.0022 51.4072V28.7181C79.0022 28.6783 78.9863 28.6401 78.9582 28.6119C78.93 28.5837 78.8918 28.5679 78.8519 28.5679C78.8121 28.5679 78.7738 28.5837 78.7457 28.6119C78.7175 28.6401 78.7017 28.6783 78.7017 28.7181V51.4072C78.7017 51.4269 78.7055 51.4464 78.7131 51.4647C78.7206 51.4829 78.7317 51.4995 78.7457 51.5134C78.7596 51.5274 78.7762 51.5384 78.7944 51.546C78.8126 51.5535 78.8322 51.5574 78.8519 51.5574Z" fill="white"/>
<path d="M68.9349 33.5264H68.9344C68.8946 33.5263 68.8564 33.5103 68.8283 33.482C68.8002 33.4537 68.7845 33.4155 68.7847 33.3756L68.8598 10.3861C68.8599 10.3463 68.8758 10.3082 68.904 10.2802C68.9322 10.2521 68.9703 10.2363 69.0101 10.2363H69.0106C69.0504 10.2365 69.0886 10.2524 69.1167 10.2807C69.1447 10.309 69.1604 10.3472 69.1603 10.3871L69.0852 33.3766C69.085 33.4164 69.0691 33.4545 69.041 33.4826C69.0128 33.5106 68.9747 33.5264 68.9349 33.5264Z" fill="#3F3D56"/>
<path d="M49.7015 66.4327H49.701C49.6612 66.4325 49.623 66.4166 49.5949 66.3883C49.5669 66.3601 49.5512 66.3218 49.5513 66.282L49.6264 43.8934C49.6265 43.8536 49.6424 43.8155 49.6706 43.7875C49.6988 43.7594 49.7369 43.7437 49.7767 43.7437H49.7772C49.817 43.7438 49.8552 43.7598 49.8833 43.788C49.9113 43.8163 49.9271 43.8546 49.9269 43.8944L49.8518 66.2829C49.8517 66.3226 49.8358 66.3607 49.8076 66.3888C49.7795 66.4169 49.7413 66.4327 49.7015 66.4327Z" fill="#3F3D56"/>
<path d="M35.4276 37.7337H35.4271C35.3872 37.7336 35.3491 37.7176 35.321 37.6893C35.2929 37.661 35.2772 37.6228 35.2773 37.5829L35.3525 14.8939C35.3526 14.8541 35.3685 14.816 35.3967 14.788C35.4248 14.7599 35.463 14.7442 35.5027 14.7441H35.5032C35.5431 14.7443 35.5813 14.7602 35.6093 14.7885C35.6374 14.8168 35.6531 14.8551 35.653 14.8949L35.5779 37.5839C35.5777 37.6237 35.5618 37.6618 35.5337 37.6898C35.5055 37.7179 35.4674 37.7337 35.4276 37.7337Z" fill="#3F3D56"/>
<path d="M29.2228 43.7739C29.5121 42.2117 31.2883 41.4913 32.7276 41.6136C34.7843 41.7885 36.5009 43.1426 38.4151 43.781C39.3402 44.0895 40.3354 44.2588 41.3048 44.0813C42.069 43.9239 42.7776 43.5662 43.358 43.0447C44.471 42.0935 45.2234 40.7961 46.3373 39.8459C46.933 39.3095 47.6864 38.9806 48.4847 38.9083C49.4675 38.843 50.4299 39.176 51.2914 39.6225C53.0027 40.5093 54.4037 41.9205 56.2265 42.6049C57.0634 42.9276 57.9712 43.0214 58.8565 42.8766C59.74 42.7006 60.5801 42.3519 61.3287 41.8506C62.8981 40.8591 64.1915 39.4833 65.8417 38.6137C66.6531 38.1861 67.5546 37.8591 68.4816 37.8526C69.3774 37.8538 70.2386 38.1986 70.8877 38.816C72.1375 39.952 73.1228 41.7454 75.0317 41.7769C75.4297 41.7843 75.8215 41.6767 76.1601 41.4672C76.4063 41.3149 76.1802 40.9248 75.9325 41.078C75.1545 41.5591 74.2174 41.2554 73.5083 40.7889C72.7531 40.2919 72.2169 39.5323 71.6006 38.8852C70.9882 38.2423 70.2738 37.7008 69.393 37.5002C68.513 37.3264 67.6018 37.4025 66.7628 37.72C64.9597 38.3482 63.5948 39.6414 62.0984 40.7664C60.6236 41.8752 58.9017 42.8345 56.9988 42.3728C55.1041 41.913 53.6668 40.4782 52.0282 39.5152C50.4441 38.5842 48.5024 37.9897 46.7967 38.9693C45.5078 39.7095 44.6929 41.0167 43.703 42.0815C43.2145 42.607 42.6698 43.0954 42.0099 43.3938C41.0931 43.8086 40.057 43.7602 39.102 43.5144C37.1099 43.0016 35.4297 41.6602 33.4011 41.259C31.8954 40.9611 30.1133 41.3364 29.1943 42.6675C28.9911 42.9642 28.8527 43.3003 28.7881 43.6541C28.7356 43.9377 29.1699 44.0592 29.2228 43.7739Z" fill="#3F3D56"/>
<path d="M35.5022 44.7583C36.581 44.7583 37.4555 43.8837 37.4555 42.8049C37.4555 41.7261 36.581 40.8516 35.5022 40.8516C34.4234 40.8516 33.5488 41.7261 33.5488 42.8049C33.5488 43.8837 34.4234 44.7583 35.5022 44.7583Z" fill="#FCD20F"/>
<path d="M49.5515 40.626C50.6303 40.626 51.5049 39.7514 51.5049 38.6726C51.5049 37.5938 50.6303 36.7192 49.5515 36.7192C48.4727 36.7192 47.5981 37.5938 47.5981 38.6726C47.5981 39.7514 48.4727 40.626 49.5515 40.626Z" fill="#FCD20F"/>
<path d="M68.7844 39.2734C69.8632 39.2734 70.7378 38.3989 70.7378 37.3201C70.7378 36.2412 69.8632 35.3667 68.7844 35.3667C67.7056 35.3667 66.8311 36.2412 66.8311 37.3201C66.8311 38.3989 67.7056 39.2734 68.7844 39.2734Z" fill="#FCD20F"/>
<path d="M52.029 72.1553H47.7445C47.5088 72.1552 47.2811 72.07 47.1032 71.9154C46.9253 71.7608 46.8091 71.5473 46.7761 71.314C46.5115 69.3672 46.5115 67.3936 46.7761 65.4468C46.8087 65.2168 46.922 65.0058 47.0959 64.8516C47.2698 64.6975 47.4928 64.6102 47.7252 64.6054C49.1203 63.8562 50.5743 63.8561 52.0474 64.6054C52.188 64.6078 52.3264 64.6408 52.4529 64.7021C52.5794 64.7634 52.691 64.8515 52.7799 64.9604C52.8731 65.0741 52.9398 65.2071 52.9751 65.3498C53.0105 65.4925 53.0136 65.6413 52.9842 65.7854C52.64 67.4982 52.64 69.2624 52.9842 70.9753C53.0136 71.1193 53.0105 71.2681 52.9751 71.4108C52.9398 71.5535 52.8731 71.6865 52.7799 71.8002C52.689 71.9115 52.5744 72.0011 52.4445 72.0625C52.3146 72.1239 52.1727 72.1556 52.029 72.1553Z" fill="#C81025"/>
<path d="M71.7121 13.5958H67.4276C67.1919 13.5956 66.9642 13.5104 66.7863 13.3558C66.6084 13.2013 66.4923 12.9877 66.4592 12.7544C66.1946 10.8076 66.1946 8.83398 66.4592 6.88719C66.4919 6.65667 66.6057 6.44535 66.7801 6.29117C66.9546 6.13699 67.1783 6.05005 67.4111 6.04595C68.7592 5.44169 70.2109 5.44176 71.7269 6.04588C71.868 6.04775 72.0071 6.08051 72.1343 6.14184C72.2615 6.20317 72.3737 6.2916 72.4631 6.40091C72.5562 6.51463 72.6229 6.64767 72.6582 6.79038C72.6936 6.93309 72.6967 7.08188 72.6673 7.22594C72.3231 8.93872 72.3231 10.7029 72.6673 12.4157C72.6967 12.5597 72.6936 12.7085 72.6582 12.8512C72.6229 12.9939 72.5562 13.127 72.4631 13.2407C72.3721 13.3519 72.2575 13.4415 72.1276 13.5029C71.9977 13.5644 71.8558 13.5961 71.7121 13.5958Z" fill="#002780"/>
<path d="M37.5629 17.498H33.2784C33.1347 17.4983 32.9927 17.4666 32.8628 17.4052C32.7329 17.3437 32.6184 17.2542 32.5274 17.1429C32.4342 17.0292 32.3676 16.8961 32.3322 16.7534C32.2969 16.6107 32.2938 16.4619 32.3232 16.3179C32.6673 14.6051 32.6673 12.8409 32.3232 11.1282C32.2938 10.9841 32.2969 10.8353 32.3322 10.6926C32.3676 10.5499 32.4342 10.4168 32.5274 10.3031C32.6165 10.1942 32.7282 10.106 32.8548 10.0447C32.9814 9.9834 33.1199 9.95046 33.2605 9.94818C34.5631 9.31024 36.0155 9.31024 37.578 9.94818C37.811 9.95191 38.0351 10.0387 38.2098 10.1929C38.3846 10.3471 38.4986 10.5587 38.5312 10.7894C38.7958 12.7362 38.7958 14.7098 38.5312 16.6565C38.4982 16.8899 38.3821 17.1035 38.2042 17.2581C38.0263 17.4126 37.7986 17.4978 37.5629 17.498Z" fill="#CCCCCC"/>
<path d="M71.2642 8.28281H67.658C67.5982 8.28281 67.5409 8.25906 67.4986 8.21679C67.4564 8.17452 67.4326 8.1172 67.4326 8.05742C67.4326 7.99764 67.4564 7.94031 67.4986 7.89804C67.5409 7.85578 67.5982 7.83203 67.658 7.83203H71.2642C71.324 7.83203 71.3813 7.85578 71.4236 7.89804C71.4658 7.94031 71.4896 7.99764 71.4896 8.05742C71.4896 8.1172 71.4658 8.17452 71.4236 8.21679C71.3813 8.25906 71.324 8.28281 71.2642 8.28281Z" fill="white"/>
<path d="M71.2642 10.086H67.658C67.5982 10.086 67.5409 10.0623 67.4986 10.02C67.4564 9.97775 67.4326 9.92042 67.4326 9.86064C67.4326 9.80087 67.4564 9.74354 67.4986 9.70127C67.5409 9.659 67.5982 9.63525 67.658 9.63525H71.2642C71.324 9.63525 71.3813 9.659 71.4236 9.70127C71.4658 9.74354 71.4896 9.80087 71.4896 9.86064C71.4896 9.92042 71.4658 9.97775 71.4236 10.02C71.3813 10.0623 71.324 10.086 71.2642 10.086Z" fill="white"/>
<path d="M71.2642 11.8893H67.658C67.5982 11.8893 67.5409 11.8655 67.4986 11.8232C67.4564 11.781 67.4326 11.7236 67.4326 11.6639C67.4326 11.6041 67.4564 11.5468 67.4986 11.5045C67.5409 11.4622 67.5982 11.4385 67.658 11.4385H71.2642C71.324 11.4385 71.3813 11.4622 71.4236 11.5045C71.4658 11.5468 71.4896 11.6041 71.4896 11.6639C71.4896 11.7236 71.4658 11.781 71.4236 11.8232C71.3813 11.8655 71.324 11.8893 71.2642 11.8893Z" fill="white"/>
<path d="M37.628 11.8893H34.0218C33.962 11.8893 33.9047 11.8655 33.8624 11.8232C33.8201 11.781 33.7964 11.7236 33.7964 11.6639C33.7964 11.6041 33.8201 11.5468 33.8624 11.5045C33.9047 11.4622 33.962 11.4385 34.0218 11.4385H37.628C37.6878 11.4385 37.7451 11.4622 37.7874 11.5045C37.8296 11.5468 37.8534 11.6041 37.8534 11.6639C37.8534 11.7236 37.8296 11.781 37.7874 11.8232C37.7451 11.8655 37.6878 11.8893 37.628 11.8893Z" fill="white"/>
<path d="M37.628 13.692H34.0218C33.962 13.692 33.9047 13.6682 33.8624 13.626C33.8201 13.5837 33.7964 13.5264 33.7964 13.4666C33.7964 13.4068 33.8201 13.3495 33.8624 13.3072C33.9047 13.265 33.962 13.2412 34.0218 13.2412H37.628C37.6878 13.2412 37.7451 13.265 37.7874 13.3072C37.8296 13.3495 37.8534 13.4068 37.8534 13.4666C37.8534 13.5264 37.8296 13.5837 37.7874 13.626C37.7451 13.6682 37.6878 13.692 37.628 13.692Z" fill="white"/>
<path d="M37.628 15.4952H34.0218C33.962 15.4952 33.9047 15.4715 33.8624 15.4292C33.8201 15.3869 33.7964 15.3296 33.7964 15.2698C33.7964 15.21 33.8201 15.1527 33.8624 15.1104C33.9047 15.0682 33.962 15.0444 34.0218 15.0444H37.628C37.6878 15.0444 37.7451 15.0682 37.7874 15.1104C37.8296 15.1527 37.8534 15.21 37.8534 15.2698C37.8534 15.3296 37.8296 15.3869 37.7874 15.4292C37.7451 15.4715 37.6878 15.4952 37.628 15.4952Z" fill="white"/>
<path d="M51.752 66.4327H48.1458C48.086 66.4327 48.0287 66.409 47.9864 66.3667C47.9442 66.3244 47.9204 66.2671 47.9204 66.2073C47.9204 66.1475 47.9442 66.0902 47.9864 66.0479C48.0287 66.0057 48.086 65.9819 48.1458 65.9819H51.752C51.8118 65.9819 51.8691 66.0057 51.9114 66.0479C51.9536 66.0902 51.9774 66.1475 51.9774 66.2073C51.9774 66.2671 51.9536 66.3244 51.9114 66.3667C51.8691 66.409 51.8118 66.4327 51.752 66.4327Z" fill="white"/>
<path d="M51.752 68.2359H48.1458C48.086 68.2359 48.0287 68.2122 47.9864 68.1699C47.9442 68.1277 47.9204 68.0703 47.9204 68.0105C47.9204 67.9508 47.9442 67.8934 47.9864 67.8512C48.0287 67.8089 48.086 67.7852 48.1458 67.7852H51.752C51.8118 67.7852 51.8691 67.8089 51.9114 67.8512C51.9536 67.8934 51.9774 67.9508 51.9774 68.0105C51.9774 68.0703 51.9536 68.1277 51.9114 68.1699C51.8691 68.2122 51.8118 68.2359 51.752 68.2359Z" fill="white"/>
<path d="M51.752 70.0392H48.1458C48.086 70.0392 48.0287 70.0154 47.9864 69.9731C47.9442 69.9309 47.9204 69.8735 47.9204 69.8138C47.9204 69.754 47.9442 69.6967 47.9864 69.6544C48.0287 69.6121 48.086 69.5884 48.1458 69.5884H51.752C51.8118 69.5884 51.8691 69.6121 51.9114 69.6544C51.9536 69.6967 51.9774 69.754 51.9774 69.8138C51.9774 69.8735 51.9536 69.9309 51.9114 69.9731C51.8691 70.0154 51.8118 70.0392 51.752 70.0392Z" fill="white"/>
<path d="M122.656 59.6276L112.621 57.3579L108.904 65.9821L107.852 83.5623L110.593 97.8369H116.084L113.562 83.5623L114.163 72.7437L116.979 85.7359L124.44 96.515L127.883 93.5415L121.976 83.4121C121.976 83.4121 124.449 65.2272 121.826 62.0754L122.656 59.6276Z" fill="#FCD20F"/>
<path d="M116.668 42.5016L117.471 42.1997L118.485 40.5605L122.096 40.8556L122.974 42.6132L125.088 44.2279L124.164 49.0977L122.727 55.013L113.111 53.8109L113.121 49.358C113.121 49.358 111.383 45.8399 114.19 44.5216L116.668 42.5016Z" fill="#C81025"/>
<path d="M101.845 57.948C102.031 58.0229 102.232 58.056 102.433 58.045C102.634 58.0339 102.83 57.9789 103.007 57.8839C103.184 57.7889 103.339 57.6561 103.459 57.495C103.58 57.3339 103.663 57.1484 103.704 56.9514L114.427 50.4634L112.467 48.2021L102.543 55.2907C102.208 55.2438 101.867 55.3216 101.585 55.5092C101.303 55.6969 101.1 55.9815 101.014 56.309C100.928 56.6365 100.965 56.9843 101.118 57.2864C101.271 57.5885 101.53 57.8239 101.845 57.948Z" fill="#A0616A"/>
<path d="M118 47.3868C118 47.3868 118.513 47.9024 117.227 48.7501C116.198 49.4288 111.606 52.7828 109.979 53.3133C109.999 53.5523 109.939 53.7914 109.809 53.9928C109.679 54.1941 109.485 54.3464 109.258 54.4255L107.785 51.1871C108.104 50.4468 108.614 50.6182 108.882 50.7861L110.662 49.4476L115.033 45.0835L117.637 47.0075L118 47.3868Z" fill="#C81025"/>
<path d="M101.567 58.4731H97.2823C97.1386 58.4734 96.9966 58.4417 96.8667 58.3803C96.7368 58.3188 96.6223 58.2292 96.5313 58.118C96.4381 58.0043 96.3715 57.8712 96.3361 57.7285C96.3008 57.5858 96.2977 57.437 96.3271 57.293C96.6712 55.5802 96.6712 53.816 96.3271 52.1033C96.2977 51.9592 96.3008 51.8104 96.3361 51.6677C96.3715 51.525 96.4381 51.3919 96.5313 51.2782C96.6204 51.1693 96.7321 51.0811 96.8587 51.0198C96.9853 50.9585 97.1238 50.9256 97.2644 50.9233C98.567 50.2853 100.019 50.2853 101.582 50.9233C101.815 50.927 102.039 51.0138 102.214 51.168C102.388 51.3222 102.502 51.5337 102.535 51.7645C102.8 53.7113 102.8 55.6849 102.535 57.6316C102.502 57.865 102.386 58.0786 102.208 58.2332C102.03 58.3877 101.802 58.4729 101.567 58.4731Z" fill="#C81025"/>
<path d="M101.632 52.8639H98.0262C97.9664 52.8639 97.9091 52.8401 97.8668 52.7978C97.8245 52.7556 97.8008 52.6983 97.8008 52.6385C97.8008 52.5787 97.8245 52.5214 97.8668 52.4791C97.9091 52.4368 97.9664 52.4131 98.0262 52.4131H101.632C101.692 52.4131 101.749 52.4368 101.792 52.4791C101.834 52.5214 101.858 52.5787 101.858 52.6385C101.858 52.6983 101.834 52.7556 101.792 52.7978C101.749 52.8401 101.692 52.8639 101.632 52.8639Z" fill="white"/>
<path d="M101.632 54.6671H98.0262C97.9664 54.6671 97.9091 54.6433 97.8668 54.6011C97.8245 54.5588 97.8008 54.5015 97.8008 54.4417C97.8008 54.3819 97.8245 54.3246 97.8668 54.2823C97.9091 54.2401 97.9664 54.2163 98.0262 54.2163H101.632C101.692 54.2163 101.749 54.2401 101.792 54.2823C101.834 54.3246 101.858 54.3819 101.858 54.4417C101.858 54.5015 101.834 54.5588 101.792 54.6011C101.749 54.6433 101.692 54.6671 101.632 54.6671Z" fill="white"/>
<path d="M101.632 56.4703H98.0262C97.9664 56.4703 97.9091 56.4466 97.8668 56.4043C97.8245 56.362 97.8008 56.3047 97.8008 56.2449C97.8008 56.1851 97.8245 56.1278 97.8668 56.0855C97.9091 56.0433 97.9664 56.0195 98.0262 56.0195H101.632C101.692 56.0195 101.749 56.0433 101.792 56.0855C101.834 56.1278 101.858 56.1851 101.858 56.2449C101.858 56.3047 101.834 56.362 101.792 56.4043C101.749 56.4466 101.692 56.4703 101.632 56.4703Z" fill="white"/>
<path d="M122.303 71.395H118.018C117.874 71.3953 117.732 71.3636 117.603 71.3021C117.473 71.2407 117.358 71.1511 117.267 71.0399C117.174 70.9262 117.107 70.7931 117.072 70.6504C117.037 70.5077 117.034 70.3589 117.063 70.2149C117.407 68.5021 117.407 66.7379 117.063 65.0251C117.034 64.8811 117.037 64.7323 117.072 64.5896C117.107 64.4468 117.174 64.3138 117.267 64.2C117.356 64.0911 117.468 64.003 117.595 63.9417C117.721 63.8804 117.86 63.8474 118 63.8452C119.303 63.2072 120.755 63.2072 122.318 63.8452C122.551 63.8489 122.775 63.9357 122.95 64.0899C123.124 64.2441 123.238 64.4556 123.271 64.6864C123.536 66.6332 123.536 68.6068 123.271 70.5535C123.238 70.7869 123.122 71.0004 122.944 71.155C122.766 71.3096 122.538 71.3948 122.303 71.395Z" fill="#CCCCCC"/>
<path d="M122.368 65.7862H118.762C118.702 65.7862 118.644 65.7625 118.602 65.7202C118.56 65.6779 118.536 65.6206 118.536 65.5608C118.536 65.5011 118.56 65.4437 118.602 65.4015C118.644 65.3592 118.702 65.3354 118.762 65.3354H122.368C122.428 65.3354 122.485 65.3592 122.527 65.4015C122.569 65.4437 122.593 65.5011 122.593 65.5608C122.593 65.6206 122.569 65.6779 122.527 65.7202C122.485 65.7625 122.428 65.7862 122.368 65.7862Z" fill="white"/>
<path d="M122.368 67.5894H118.762C118.702 67.5894 118.644 67.5657 118.602 67.5234C118.56 67.4812 118.536 67.4238 118.536 67.3641C118.536 67.3043 118.56 67.247 118.602 67.2047C118.644 67.1624 118.702 67.1387 118.762 67.1387H122.368C122.428 67.1387 122.485 67.1624 122.527 67.2047C122.569 67.247 122.593 67.3043 122.593 67.3641C122.593 67.4238 122.569 67.4812 122.527 67.5234C122.485 67.5657 122.428 67.5894 122.368 67.5894Z" fill="white"/>
<path d="M122.368 69.3927H118.762C118.702 69.3927 118.644 69.3689 118.602 69.3266C118.56 69.2844 118.536 69.2271 118.536 69.1673C118.536 69.1075 118.56 69.0502 118.602 69.0079C118.644 68.9656 118.702 68.9419 118.762 68.9419H122.368C122.428 68.9419 122.485 68.9656 122.527 69.0079C122.569 69.0502 122.593 69.1075 122.593 69.1673C122.593 69.2271 122.569 69.2844 122.527 69.3266C122.485 69.3689 122.428 69.3927 122.368 69.3927Z" fill="white"/>
<path d="M120.401 64.9431C120.588 64.8702 120.758 64.7571 120.897 64.6118C121.036 64.4664 121.141 64.2923 121.206 64.1018C121.27 63.9112 121.292 63.7089 121.27 63.5089C121.248 63.309 121.182 63.1164 121.077 62.9446L124.469 50.8798L121.493 50.5688L119.095 62.5259C118.818 62.7209 118.622 63.0107 118.545 63.3404C118.467 63.6701 118.513 64.0167 118.674 64.3147C118.835 64.6126 119.1 64.8412 119.418 64.957C119.736 65.0729 120.086 65.0679 120.401 64.9431Z" fill="#A0616A"/>
<path d="M124.971 44.2572C124.971 44.2572 125.697 44.2833 125.338 45.7809C125.051 46.9799 123.995 54.5013 123.17 56.001C123.348 56.1616 123.468 56.3769 123.51 56.6131C123.552 56.8492 123.515 57.0928 123.404 57.3053L120.115 55.9487C119.842 55.1903 120.053 54.5017 120.364 54.4408L120.748 52.2473L121.314 44.8886L124.446 44.229L124.971 44.2572Z" fill="#C81025"/>
<path d="M122.287 30.5874C122.784 31.3221 123.106 32.1617 123.226 33.041C123.347 33.9203 123.263 34.8155 122.981 35.6569" fill="#FD6584"/>
<path d="M139.831 104.034C139.831 104.058 139.826 104.081 139.817 104.103C139.808 104.125 139.795 104.144 139.778 104.161C139.762 104.177 139.742 104.191 139.72 104.2C139.698 104.209 139.675 104.213 139.652 104.213H97.5357C97.5123 104.213 97.489 104.208 97.4673 104.199C97.4456 104.19 97.4259 104.177 97.4093 104.161C97.3927 104.144 97.3795 104.124 97.3705 104.103C97.3616 104.081 97.3569 104.058 97.3569 104.034C97.3569 104.011 97.3616 103.988 97.3705 103.966C97.3795 103.944 97.3927 103.924 97.4093 103.908C97.4259 103.891 97.4456 103.878 97.4673 103.869C97.489 103.86 97.5123 103.855 97.5357 103.855H139.652C139.675 103.855 139.698 103.86 139.72 103.869C139.742 103.878 139.762 103.891 139.778 103.908C139.795 103.924 139.808 103.944 139.817 103.966C139.826 103.987 139.831 104.011 139.831 104.034Z" fill="#CCCCCC"/>
</g>
<defs>
<clipPath id="clip0_603_724">
<rect width="122.222" height="98.6202" fill="white" transform="translate(21.3784 5.59277)"/>
</clipPath>
</defs>
</svg>
