<svg width="180" height="110" viewBox="0 0 180 110" fill="none" xmlns="http://www.w3.org/2000/svg">
<g clip-path="url(#clip0_603_2291)">
<path d="M42.1923 3.854C41.0211 3.85532 39.8983 4.32114 39.0702 5.14928C38.242 5.97742 37.7762 7.10023 37.7749 8.27139V101.924C37.7762 103.095 38.242 104.218 39.0702 105.046C39.8983 105.874 41.0211 106.34 42.1923 106.341H83.1912C84.3623 106.34 85.4851 105.874 86.3133 105.046C87.1414 104.218 87.6072 103.095 87.6086 101.924V8.27139C87.6073 7.10023 87.1414 5.97742 86.3133 5.14928C85.4852 4.32114 84.3623 3.85532 83.1912 3.854H42.1923Z" fill="#E6E6E6"/>
<path d="M84.8762 25.5245V18.0094C82.5416 17.4732 80.3439 16.4578 78.4224 15.0275C76.5009 13.5972 74.8976 11.7833 73.7141 9.70068C73.1464 10.1217 72.458 10.3482 71.7512 10.3467H65.7837C67.376 14.3155 69.9735 17.8017 73.321 20.4628C76.6684 23.1238 80.6506 24.8682 84.8762 25.5245Z" fill="white"/>
<path d="M84.8764 17.5783V10.3586C84.8766 9.83049 84.7727 9.30751 84.5707 8.81957C84.3686 8.33162 84.0725 7.88826 83.699 7.51482C83.3256 7.14139 82.8822 6.84519 82.3943 6.64317C81.9063 6.44114 81.3834 6.33724 80.8552 6.3374H75.0616V7.03452C75.0621 7.48165 74.9719 7.92423 74.7963 8.33544C74.6207 8.74664 74.3634 9.11789 74.04 9.42668C75.1848 11.4606 76.7387 13.2351 78.6039 14.6381C80.4691 16.0411 82.6049 17.0421 84.8764 17.578V17.5783Z" fill="white"/>
<path d="M57.0068 10.3467H53.2754C52.3973 10.3464 51.5552 9.99738 50.9345 9.37634C50.3137 8.7553 49.965 7.91311 49.9651 7.03501V6.33789H44.5295C44.0014 6.33785 43.4785 6.44185 42.9906 6.64394C42.5026 6.84603 42.0593 7.14225 41.6859 7.51569C41.3125 7.88913 41.0163 8.33247 40.8142 8.8204C40.6122 9.30832 40.5082 9.83127 40.5083 10.3594V99.8391C40.5077 100.367 40.6114 100.89 40.8133 101.378C41.0152 101.866 41.3114 102.31 41.685 102.683C42.0586 103.056 42.5021 103.352 42.9902 103.554C43.4783 103.755 44.0014 103.858 44.5295 103.858H80.8556C81.0213 103.858 81.1868 103.848 81.3512 103.827C82.3238 103.706 83.2187 103.234 83.8678 102.5C84.517 101.765 84.8758 100.819 84.8768 99.8391V33.9684C71.6643 32.438 60.6555 23.0106 57.0068 10.3467Z" fill="white"/>
<path d="M65.3316 10.3467H57.4438C61.0744 22.776 71.8942 32.0234 84.8771 33.5474V25.9522C80.5385 25.2889 76.4499 23.4985 73.02 20.76C69.5901 18.0215 66.9389 14.4308 65.3315 10.3467H65.3316Z" fill="white"/>
<path d="M82.1094 77.4008H44.8377C44.6547 77.4006 44.4793 77.3278 44.3499 77.1984C44.2205 77.069 44.1477 76.8936 44.1475 76.7106V67.4651C44.1477 67.2821 44.2205 67.1067 44.3499 66.9773C44.4793 66.8479 44.6547 66.7751 44.8377 66.7749H82.1094C82.2924 66.7751 82.4678 66.8479 82.5972 66.9773C82.7266 67.1067 82.7994 67.2821 82.7996 67.4651V76.7107C82.7994 76.8937 82.7266 77.0691 82.5972 77.1984C82.4678 77.3278 82.2924 77.4006 82.1094 77.4008ZM44.8377 67.0509C44.7278 67.0509 44.6225 67.0945 44.5448 67.1721C44.4672 67.2498 44.4235 67.3552 44.4235 67.465V76.7106C44.4235 76.8204 44.4672 76.9257 44.5448 77.0034C44.6225 77.0811 44.7278 77.1247 44.8377 77.1247H82.1094C82.2192 77.1247 82.3246 77.0811 82.4022 77.0034C82.4799 76.9257 82.5235 76.8204 82.5235 76.7106V67.4651C82.5235 67.3553 82.4799 67.2499 82.4022 67.1723C82.3246 67.0946 82.2192 67.051 82.1094 67.051L44.8377 67.0509Z" fill="#E6E6E6"/>
<path d="M49.6689 74.9868C51.27 74.9868 52.5678 73.6889 52.5678 72.0879C52.5678 70.4869 51.27 69.189 49.6689 69.189C48.0679 69.189 46.77 70.4869 46.77 72.0879C46.77 73.6889 48.0679 74.9868 49.6689 74.9868Z" fill="#FCD20F"/>
<path d="M56.364 70.1553C56.2359 70.1553 56.113 70.2062 56.0224 70.2968C55.9318 70.3874 55.8809 70.5103 55.8809 70.6384C55.8809 70.7666 55.9318 70.8895 56.0224 70.9801C56.113 71.0707 56.2359 71.1216 56.364 71.1216H79.1412C79.2693 71.1216 79.3922 71.0707 79.4828 70.9801C79.5734 70.8895 79.6243 70.7666 79.6243 70.6384C79.6243 70.5103 79.5734 70.3874 79.4828 70.2968C79.3922 70.2062 79.2693 70.1553 79.1412 70.1553H56.364Z" fill="#E6E6E6"/>
<path d="M56.364 73.0542C56.2359 73.0542 56.113 73.1051 56.0224 73.1957C55.9318 73.2863 55.8809 73.4092 55.8809 73.5374C55.8809 73.6655 55.9318 73.7884 56.0224 73.879C56.113 73.9696 56.2359 74.0205 56.364 74.0205H79.1412C79.2693 74.0205 79.3922 73.9696 79.4828 73.879C79.5734 73.7884 79.6243 73.6655 79.6243 73.5374C79.6243 73.4092 79.5734 73.2863 79.4828 73.1957C79.3922 73.1051 79.2693 73.0542 79.1412 73.0542H56.364Z" fill="#E6E6E6"/>
<path d="M82.1094 92.8617H44.8377C44.6547 92.8615 44.4793 92.7887 44.3499 92.6593C44.2205 92.5299 44.1477 92.3545 44.1475 92.1715V82.9261C44.1477 82.7431 44.2205 82.5676 44.3499 82.4382C44.4793 82.3089 44.6547 82.2361 44.8377 82.2358H82.1094C82.2924 82.2361 82.4678 82.3089 82.5972 82.4382C82.7266 82.5676 82.7994 82.7431 82.7996 82.9261V92.1717C82.7994 92.3546 82.7266 92.53 82.5972 92.6594C82.4678 92.7887 82.2924 92.8615 82.1094 92.8617ZM44.8377 82.5118C44.7278 82.5118 44.6225 82.5554 44.5448 82.6331C44.4672 82.7107 44.4235 82.8161 44.4235 82.9259V92.1715C44.4235 92.2813 44.4672 92.3867 44.5448 92.4643C44.6225 92.542 44.7278 92.5856 44.8377 92.5856H82.1094C82.2192 92.5856 82.3246 92.542 82.4022 92.4643C82.4799 92.3867 82.5235 92.2813 82.5235 92.1715V82.9261C82.5235 82.8162 82.4799 82.7109 82.4022 82.6332C82.3246 82.5556 82.2192 82.5119 82.1094 82.5119L44.8377 82.5118Z" fill="#E6E6E6"/>
<path d="M49.6689 90.4477C51.27 90.4477 52.5678 89.1498 52.5678 87.5488C52.5678 85.9478 51.27 84.6499 49.6689 84.6499C48.0679 84.6499 46.77 85.9478 46.77 87.5488C46.77 89.1498 48.0679 90.4477 49.6689 90.4477Z" fill="#FCD20F"/>
<path d="M56.364 85.6162C56.2359 85.6162 56.113 85.6671 56.0224 85.7577C55.9318 85.8483 55.8809 85.9712 55.8809 86.0994C55.8809 86.2275 55.9318 86.3504 56.0224 86.441C56.113 86.5316 56.2359 86.5825 56.364 86.5825H79.1412C79.2693 86.5825 79.3922 86.5316 79.4828 86.441C79.5734 86.3504 79.6243 86.2275 79.6243 86.0994C79.6243 85.9712 79.5734 85.8483 79.4828 85.7577C79.3922 85.6671 79.2693 85.6162 79.1412 85.6162H56.364Z" fill="#E6E6E6"/>
<path d="M56.364 88.5151C56.2359 88.5151 56.113 88.566 56.0224 88.6567C55.9318 88.7473 55.8809 88.8701 55.8809 88.9983C55.8809 89.1264 55.9318 89.2493 56.0224 89.3399C56.113 89.4305 56.2359 89.4814 56.364 89.4814H79.1412C79.2693 89.4814 79.3922 89.4305 79.4828 89.3399C79.5734 89.2493 79.6243 89.1264 79.6243 88.9983C79.6243 88.8701 79.5734 88.7473 79.4828 88.6567C79.3922 88.566 79.2693 88.5151 79.1412 88.5151H56.364Z" fill="#E6E6E6"/>
<path d="M62.6888 58.2429C60.9665 58.2436 59.2608 57.9049 57.6694 57.2461C56.078 56.5873 54.632 55.6214 53.4141 54.4035C52.1962 53.1856 51.2303 51.7396 50.5715 50.1482C49.9127 48.5568 49.574 46.8511 49.5747 45.1288C49.5747 45.1012 49.5747 45.0725 49.5764 45.045C49.6165 37.8633 55.4984 32.0146 62.6888 32.0146C64.411 32.0146 66.1163 32.3539 67.7074 33.0129C69.2985 33.6719 70.7442 34.6379 71.9619 35.8557C73.1797 37.0734 74.1457 38.5191 74.8047 40.1102C75.4638 41.7013 75.803 43.4066 75.803 45.1288C75.803 46.8509 75.4638 48.5563 74.8047 50.1473C74.1457 51.7384 73.1797 53.1841 71.9619 54.4019C70.7442 55.6196 69.2985 56.5856 67.7074 57.2446C66.1163 57.9037 64.411 58.2429 62.6888 58.2429ZM62.6888 32.2907C59.2994 32.2983 56.0499 33.643 53.6463 36.0328C51.2427 38.4226 49.8792 41.6643 49.8522 45.0537C49.8507 45.0829 49.8508 45.1065 49.8508 45.1288C49.8505 47.6684 50.6033 50.151 52.014 52.2628C53.4247 54.3745 55.43 56.0204 57.7762 56.9924C60.1224 57.9645 62.7042 58.2189 65.195 57.7235C67.6858 57.2281 69.9738 56.0052 71.7695 54.2095C73.5653 52.4137 74.7882 50.1257 75.2836 47.6349C75.7789 45.1441 75.5245 42.5623 74.5525 40.2161C73.5805 37.8699 71.9345 35.8646 69.8228 34.4539C67.7111 33.0432 65.2284 32.2904 62.6888 32.2907Z" fill="#3F3D56"/>
<path d="M68.6278 44.8265L59.6519 39.6442C59.61 39.62 59.5623 39.6072 59.5139 39.6072C59.4654 39.6072 59.4178 39.62 59.3758 39.6442C59.3339 39.6684 59.299 39.7033 59.2748 39.7453C59.2506 39.7872 59.2378 39.8348 59.2378 39.8833V50.2476C59.2378 50.2961 59.2506 50.3437 59.2748 50.3856C59.299 50.4276 59.3339 50.4625 59.3758 50.4867C59.4178 50.5109 59.4654 50.5237 59.5139 50.5237C59.5623 50.5237 59.61 50.5109 59.6519 50.4867L68.6278 45.3044C68.6697 45.2802 68.7046 45.2453 68.7288 45.2033C68.7531 45.1614 68.7658 45.1138 68.7658 45.0653C68.7658 45.0168 68.7531 44.9692 68.7288 44.9273C68.7046 44.8853 68.6697 44.8504 68.6278 44.8262L59.6519 39.6439C59.61 39.6197 59.5623 39.6069 59.5139 39.6069C59.4654 39.6069 59.4178 39.6197 59.3758 39.6439C59.3339 39.6682 59.299 39.703 59.2748 39.745C59.2506 39.7869 59.2378 39.8345 59.2378 39.883V50.2476C59.2378 50.2961 59.2506 50.3437 59.2748 50.3856C59.299 50.4276 59.3339 50.4625 59.3758 50.4867C59.4178 50.5109 59.4654 50.5237 59.5139 50.5237C59.5623 50.5237 59.61 50.5109 59.6519 50.4867L68.6278 45.3044C68.6697 45.2802 68.7046 45.2453 68.7288 45.2033C68.7531 45.1614 68.7658 45.1138 68.7658 45.0653C68.7658 45.0168 68.7531 44.9692 68.7288 44.9273C68.7046 44.8853 68.6697 44.8504 68.6278 44.8262V44.8265Z" fill="#002780"/>
<path d="M134.146 106.521H29.5684V106.22H134.2L134.146 106.521Z" fill="#3F3D56"/>
<path d="M111.106 54.3876C113.236 54.3876 114.963 52.661 114.963 50.5312C114.963 48.4014 113.236 46.6748 111.106 46.6748C108.977 46.6748 107.25 48.4014 107.25 50.5312C107.25 52.661 108.977 54.3876 111.106 54.3876Z" fill="#FFB8B8"/>
<path d="M110.857 72.1504C110.783 71.9187 110.758 71.6738 110.785 71.4318C110.812 71.1899 110.889 70.9563 111.013 70.7465C111.136 70.5366 111.302 70.3552 111.501 70.2141C111.699 70.0731 111.925 69.9755 112.164 69.9279C112.24 69.9134 112.316 69.9041 112.393 69.9003L116.455 63.3807L112.745 59.8528C112.602 59.7185 112.486 59.557 112.406 59.3776C112.325 59.1982 112.281 59.0046 112.277 58.8081C112.272 58.6116 112.306 58.4161 112.378 58.2329C112.449 58.0498 112.556 57.8828 112.693 57.7415C112.83 57.6003 112.993 57.4876 113.174 57.4102C113.355 57.3328 113.549 57.2921 113.745 57.2906C113.942 57.289 114.137 57.3266 114.319 57.4012C114.501 57.4758 114.666 57.5858 114.805 57.7249L119.928 62.7773L119.938 62.7898C120.097 63.031 120.173 63.3168 120.157 63.6048C120.14 63.8929 120.031 64.1679 119.845 64.3889L114.153 71.1198C114.17 71.1738 114.184 71.2286 114.196 71.2841C114.243 71.5227 114.24 71.7688 114.186 72.0061C114.132 72.2433 114.028 72.4665 113.882 72.661C113.735 72.8554 113.549 73.0167 113.336 73.1343C113.123 73.2519 112.888 73.3232 112.645 73.3434C112.596 73.3477 112.547 73.3499 112.499 73.3499C112.134 73.3484 111.778 73.2316 111.484 73.0162C111.189 72.8008 110.97 72.4978 110.857 72.1504Z" fill="#FFB8B8"/>
<path d="M104.755 104.202H102.83L101.914 96.7773H104.755L104.755 104.202Z" fill="#FFB8B8"/>
<path d="M105.324 106.147H98.9604V105.989C98.9604 105.661 99.025 105.337 99.1503 105.034C99.2757 104.732 99.4594 104.457 99.6911 104.225C99.9227 103.994 100.198 103.81 100.5 103.684C100.803 103.559 101.127 103.495 101.455 103.495H105.324L105.324 106.147Z" fill="#2F2E41"/>
<path d="M123.888 101.541L122.234 102.526L117.648 96.6146L120.09 95.1611L123.888 101.541Z" fill="#FFB8B8"/>
<path d="M119.904 106.176L119.823 106.041C119.485 105.473 119.386 104.793 119.549 104.152C119.711 103.511 120.122 102.96 120.69 102.622L124.015 100.642L125.372 102.92L119.904 106.176Z" fill="#2F2E41"/>
<path d="M101.672 100.932C100.382 85.7484 99.6147 71.6425 104.329 65.8883L104.365 65.8438L112.298 69.0171L112.312 69.0454C112.338 69.1037 114.977 74.9071 114.361 78.8107L116.318 87.812L122.698 98.4953C122.75 98.5813 122.782 98.6772 122.794 98.7768C122.805 98.8763 122.795 98.9771 122.765 99.0725C122.734 99.168 122.684 99.2558 122.617 99.3303C122.55 99.4048 122.468 99.4642 122.376 99.5045L119.603 100.724C119.447 100.793 119.271 100.802 119.108 100.751C118.946 100.7 118.806 100.592 118.717 100.447L111.776 89.1296L107.856 80.449C107.835 80.4018 107.798 80.363 107.753 80.3384C107.707 80.3139 107.655 80.305 107.604 80.3132C107.553 80.3214 107.506 80.3462 107.47 80.3838C107.435 80.4214 107.412 80.4696 107.407 80.5211L105.234 100.948C105.216 101.121 105.134 101.282 105.004 101.399C104.875 101.515 104.706 101.58 104.532 101.58H102.376C102.199 101.579 102.029 101.512 101.899 101.392C101.768 101.272 101.688 101.108 101.672 100.932Z" fill="#002780"/>
<path d="M104.356 66.0088L104.318 65.9907L104.312 65.9493C104.016 63.8752 104.367 61.5705 105.355 59.0996C105.842 57.8903 106.747 56.8962 107.906 56.2984C109.064 55.7006 110.399 55.5388 111.667 55.8426C112.397 56.0225 113.082 56.3522 113.679 56.8107C114.275 57.2692 114.769 57.8465 115.131 58.5061C115.488 59.1589 115.705 59.8788 115.769 60.62C115.833 61.3612 115.743 62.1077 115.504 62.8121C114.258 66.4548 112.642 69.8631 112.626 69.897L112.592 69.9681L104.356 66.0088Z" fill="#FCD20F"/>
<path d="M98.6476 74.6106C98.593 74.1917 98.6906 73.7671 98.9227 73.4141C99.1548 73.061 99.5058 72.803 99.9121 72.687L107.33 58.4449C107.426 58.2805 107.553 58.1368 107.705 58.0224C107.856 57.9079 108.03 57.8251 108.214 57.7788C108.398 57.7324 108.59 57.7235 108.778 57.7525C108.966 57.7816 109.146 57.848 109.308 57.9478C109.469 58.0477 109.609 58.1789 109.72 58.3338C109.83 58.4887 109.908 58.6641 109.949 58.8497C109.99 59.0353 109.993 59.2272 109.959 59.4141C109.925 59.6011 109.854 59.7793 109.749 59.9381L102.156 74.081C102.171 74.167 102.181 74.2541 102.183 74.3416C102.19 74.5807 102.148 74.8187 102.06 75.0413C101.972 75.2638 101.84 75.4663 101.672 75.6366C101.504 75.8069 101.303 75.9415 101.082 76.0323C100.861 76.1231 100.623 76.1682 100.384 76.1649C100.122 76.1611 99.8636 76.0993 99.628 75.9839C99.3924 75.8685 99.1853 75.7024 99.0216 75.4976C98.8164 75.2426 98.6867 74.9354 98.6469 74.6106H98.6476Z" fill="#FFB8B8"/>
<path d="M106.431 48.3528H112.554V45.6836C111.21 45.1496 109.895 44.6954 109.1 45.6836C108.392 45.6836 107.713 45.9648 107.212 46.4653C106.712 46.9659 106.431 47.6448 106.431 48.3528Z" fill="#2F2E41"/>
<path d="M112.893 45.2124C116.554 45.2124 117.579 49.801 117.579 52.3897C117.579 53.8334 116.926 54.3499 115.9 54.5244L115.537 52.5918L114.689 54.6072C114.401 54.6086 114.098 54.6031 113.784 54.5973L113.496 54.0048L112.855 54.5867C110.285 54.5905 108.208 54.965 108.208 52.3894C108.208 49.8011 109.107 45.2124 112.893 45.2124Z" fill="#2F2E41"/>
<path d="M111.803 48.9934V45.4226C111.803 45.3803 111.794 45.3385 111.778 45.2994C111.762 45.2603 111.738 45.2248 111.708 45.1949C111.678 45.165 111.643 45.1413 111.604 45.1251C111.565 45.1089 111.523 45.1006 111.481 45.1006H110.837C110.794 45.1006 110.752 45.1089 110.713 45.1251C110.674 45.1413 110.639 45.165 110.609 45.1949C110.579 45.2248 110.555 45.2603 110.539 45.2994C110.523 45.3385 110.514 45.3803 110.514 45.4226V48.7781C110.038 48.8554 109.605 49.0993 109.292 49.4664C108.979 49.8336 108.806 50.2999 108.805 50.7824C108.804 51.2649 108.974 51.7321 109.286 52.1006C109.597 52.4692 110.029 52.7152 110.505 52.7948C110.981 52.8744 111.47 52.7823 111.884 52.535C112.298 52.2877 112.611 51.9014 112.767 51.4447C112.923 50.9881 112.911 50.491 112.735 50.042C112.558 49.5931 112.228 49.2214 111.803 48.9934Z" fill="#C81025"/>
<path d="M110.944 51.7558C111.478 51.7558 111.91 51.3233 111.91 50.7898C111.91 50.2562 111.478 49.8237 110.944 49.8237C110.411 49.8237 109.978 50.2562 109.978 50.7898C109.978 51.3233 110.411 51.7558 110.944 51.7558Z" fill="white"/>
</g>
<defs>
<clipPath id="clip0_603_2291">
<rect width="104.632" height="102.667" fill="white" transform="translate(29.5684 3.854)"/>
</clipPath>
</defs>
</svg>
