<svg width="181" height="110" viewBox="0 0 181 110" fill="none" xmlns="http://www.w3.org/2000/svg">
<g clip-path="url(#clip0_603_2366)">
<path d="M68.5684 71.2703C68.306 71.2702 68.0452 71.2311 67.7944 71.1543L13.9021 54.7061C13.2288 54.4997 12.6648 54.0347 12.3339 53.4131C12.0029 52.7914 11.9321 52.0639 12.1369 51.3901L25.7185 6.89047C25.9248 6.21709 26.3898 5.65306 27.0115 5.32213C27.6331 4.99119 28.3607 4.92039 29.0345 5.12524L82.9267 21.5735C83.6001 21.7798 84.1641 22.2448 84.495 22.8665C84.826 23.4882 84.8968 24.2157 84.692 24.8896L71.1104 69.3891C70.9436 69.9333 70.6067 70.4097 70.1491 70.7483C69.6916 71.0868 69.1375 71.2698 68.5684 71.2703Z" fill="#C81025"/>
<path d="M76.5935 64.1379H20.2471C19.5215 64.137 18.8258 63.8484 18.3127 63.3354C17.7997 62.8223 17.5111 62.1266 17.5103 61.401V14.875C17.5111 14.1494 17.7997 13.4538 18.3127 12.9407C18.8258 12.4276 19.5215 12.139 20.2471 12.1382H76.5935C77.3191 12.139 78.0147 12.4276 78.5278 12.9407C79.0409 13.4538 79.3295 14.1494 79.3303 14.875V61.401C79.3295 62.1266 79.0409 62.8223 78.5278 63.3354C78.0147 63.8484 77.3191 64.137 76.5935 64.1379ZM20.2471 12.4602C19.6068 12.4609 18.993 12.7155 18.5403 13.1683C18.0876 13.621 17.833 14.2348 17.8322 14.875V61.401C17.833 62.0413 18.0876 62.6551 18.5403 63.1078C18.993 63.5605 19.6068 63.8152 20.2471 63.8159H76.5935C77.2337 63.8152 77.8475 63.5605 78.3002 63.1078C78.7529 62.6551 79.0076 62.0413 79.0083 61.401V14.875C79.0076 14.2348 78.7529 13.621 78.3002 13.1683C77.8475 12.7155 77.2337 12.4609 76.5935 12.4602H20.2471Z" fill="#3F3D56"/>
<path d="M48.4212 58.6642C48.3785 58.6642 48.3376 58.6472 48.3074 58.617C48.2772 58.5868 48.2603 58.5459 48.2603 58.5032V27.1102C48.2603 27.0675 48.2772 27.0266 48.3074 26.9964C48.3376 26.9662 48.3785 26.9492 48.4212 26.9492C48.4639 26.9492 48.5049 26.9662 48.5351 26.9964C48.5653 27.0266 48.5822 27.0675 48.5822 27.1102V58.5032C48.5822 58.5459 48.5653 58.5868 48.5351 58.617C48.5049 58.6472 48.4639 58.6642 48.4212 58.6642Z" fill="white"/>
<path d="M48.4214 51.147C48.3849 51.147 48.3495 51.1347 48.321 51.112C48.2925 51.0893 48.2725 51.0576 48.2643 51.0221C48.2562 50.9865 48.2603 50.9493 48.2761 50.9164C48.2918 50.8836 48.3183 50.857 48.3511 50.8411L65.416 42.5812C65.435 42.5719 65.4557 42.5665 65.4768 42.5652C65.498 42.564 65.5192 42.5669 65.5392 42.5738C65.5592 42.5807 65.5776 42.5915 65.5935 42.6056C65.6093 42.6196 65.6222 42.6367 65.6314 42.6558C65.6406 42.6748 65.646 42.6955 65.6472 42.7166C65.6485 42.7378 65.6455 42.759 65.6385 42.7789C65.6315 42.7989 65.6207 42.8174 65.6066 42.8332C65.5925 42.8489 65.5754 42.8618 65.5563 42.871L48.4914 51.1309C48.4696 51.1415 48.4456 51.147 48.4214 51.147Z" fill="white"/>
<path d="M48.4214 42.8871C48.3855 42.8872 48.3506 42.8752 48.3223 42.8531C48.294 42.8311 48.2739 42.8002 48.2651 42.7654C48.2564 42.7305 48.2595 42.6938 48.274 42.661C48.2885 42.6282 48.3136 42.6011 48.3453 42.5842L59.7755 36.4666C59.8132 36.4466 59.8572 36.4423 59.898 36.4547C59.9387 36.4672 59.9729 36.4952 59.993 36.5328C60.0131 36.5704 60.0175 36.6144 60.0052 36.6552C59.993 36.696 59.965 36.7303 59.9275 36.7505L48.4972 42.8681C48.4739 42.8806 48.4478 42.8871 48.4214 42.8871Z" fill="white"/>
<path d="M48.4214 33.7146C48.3856 33.7146 48.3509 33.7027 48.3226 33.6808C48.2943 33.6589 48.2742 33.6282 48.2653 33.5936C48.2564 33.5589 48.2593 33.5223 48.2735 33.4895C48.2878 33.4567 48.3125 33.4296 48.3438 33.4124L55.1054 29.7059C55.1428 29.6853 55.1869 29.6805 55.2279 29.6925C55.2689 29.7044 55.3034 29.7322 55.324 29.7696C55.3445 29.8071 55.3493 29.8512 55.3373 29.8921C55.3254 29.9331 55.2976 29.9677 55.2602 29.9882L48.4986 33.6948C48.4749 33.7078 48.4484 33.7146 48.4214 33.7146Z" fill="white"/>
<path d="M48.4206 51.1473C48.3963 51.1473 48.3724 51.1418 48.3506 51.1312L31.2856 42.8713C31.2666 42.8621 31.2496 42.8492 31.2355 42.8334C31.2215 42.8176 31.2107 42.7992 31.2037 42.7792C31.1968 42.7593 31.1939 42.7381 31.1951 42.717C31.1963 42.6959 31.2017 42.6753 31.2109 42.6562C31.2201 42.6372 31.233 42.6202 31.2488 42.6062C31.2646 42.5921 31.283 42.5813 31.3029 42.5744C31.3229 42.5674 31.344 42.5645 31.3651 42.5657C31.3862 42.5669 31.4069 42.5723 31.4259 42.5815L48.4908 50.8414C48.5236 50.8573 48.5501 50.8839 48.5658 50.9167C48.5816 50.9496 48.5857 50.9868 48.5776 51.0224C48.5694 51.0579 48.5495 51.0896 48.5209 51.1123C48.4924 51.135 48.457 51.1473 48.4206 51.1473Z" fill="white"/>
<path d="M48.4208 42.8871C48.3943 42.8871 48.3683 42.8806 48.3449 42.8681L36.9147 36.7505C36.8772 36.7303 36.8492 36.696 36.8369 36.6552C36.8246 36.6144 36.829 36.5704 36.8491 36.5328C36.8692 36.4952 36.9034 36.4672 36.9442 36.4547C36.985 36.4423 37.029 36.4466 37.0666 36.4666L48.4969 42.5842C48.5285 42.6011 48.5536 42.6282 48.5681 42.661C48.5827 42.6938 48.5858 42.7305 48.5771 42.7654C48.5683 42.8002 48.5482 42.8311 48.5199 42.8531C48.4916 42.8752 48.4567 42.8872 48.4208 42.8871Z" fill="white"/>
<path d="M48.42 33.7146C48.393 33.7146 48.3664 33.7077 48.3427 33.6947L41.5812 29.9882C41.5437 29.9677 41.516 29.9331 41.504 29.8921C41.492 29.8512 41.4969 29.8071 41.5174 29.7696C41.5379 29.7322 41.5725 29.7044 41.6135 29.6925C41.6544 29.6805 41.6985 29.6853 41.7359 29.7059L48.4975 33.4124C48.5289 33.4296 48.5536 33.4567 48.5678 33.4895C48.582 33.5223 48.5849 33.5589 48.576 33.5936C48.5672 33.6282 48.547 33.6589 48.5187 33.6808C48.4905 33.7027 48.4557 33.7146 48.42 33.7146Z" fill="white"/>
<path d="M51.1573 64.0575H45.6836C45.4062 64.0572 45.1402 63.9468 44.9441 63.7506C44.7479 63.5545 44.6375 63.2885 44.6372 63.0111V59.4693C44.6375 59.1919 44.7479 58.9259 44.9441 58.7297C45.1402 58.5335 45.4062 58.4232 45.6836 58.4229H51.1573C51.4347 58.4232 51.7007 58.5335 51.8969 58.7297C52.0931 58.9259 52.2034 59.1919 52.2037 59.4693V63.0111C52.2034 63.2885 52.0931 63.5545 51.8969 63.7506C51.7007 63.9468 51.4347 64.0572 51.1573 64.0575Z" fill="#3F3D56"/>
<path d="M17.7508 24.086C19.0518 24.086 20.1065 23.0313 20.1065 21.7302C20.1065 20.4292 19.0518 19.3745 17.7508 19.3745C16.4497 19.3745 15.395 20.4292 15.395 21.7302C15.395 23.0313 16.4497 24.086 17.7508 24.086Z" fill="#FF6584"/>
<path d="M81.5892 13.0932C81.5892 13.1835 81.5866 13.2725 81.5787 13.3602C81.5391 13.9036 81.3787 14.4315 81.1093 14.9051C80.8399 15.3788 80.4683 15.7864 80.0214 16.0983C79.5745 16.4102 79.0637 16.6185 78.5262 16.708C77.9887 16.7975 77.4379 16.766 76.9141 16.6157C76.3903 16.4655 75.9066 16.2003 75.4982 15.8395C75.0899 15.4787 74.7671 15.0313 74.5535 14.53C74.3399 14.0287 74.2408 13.486 74.2634 12.9415C74.286 12.3971 74.4298 11.8645 74.6843 11.3826C74.7631 11.2316 74.8532 11.0868 74.9539 10.9495C75.3921 10.3416 76.0062 9.88286 76.7133 9.63497C77.4205 9.38708 78.1866 9.36201 78.9084 9.56315C79.6302 9.76428 80.273 10.1819 80.75 10.7598C81.227 11.3377 81.5154 12.0479 81.5761 12.7948C81.5853 12.8929 81.5892 12.9924 81.5892 13.0932Z" fill="#3F3D56"/>
<path d="M68.0208 66.2666C69.3218 66.2666 70.3765 65.2119 70.3765 63.9109C70.3765 62.6099 69.3218 61.5552 68.0208 61.5552C66.7197 61.5552 65.665 62.6099 65.665 63.9109C65.665 65.2119 66.7197 66.2666 68.0208 66.2666Z" fill="#E6E6E6"/>
<path d="M49.99 14.5889C51.291 14.5889 52.3457 13.5342 52.3457 12.2332C52.3457 10.9321 51.291 9.87744 49.99 9.87744C48.689 9.87744 47.6343 10.9321 47.6343 12.2332C47.6343 13.5342 48.689 14.5889 49.99 14.5889Z" fill="#E6E6E6"/>
<path d="M142.761 105.351C142.718 105.351 142.677 105.334 142.647 105.304C142.617 105.274 142.6 105.233 142.6 105.19V102.292C142.6 102.25 142.617 102.209 142.647 102.179C142.677 102.148 142.718 102.131 142.761 102.131C142.803 102.131 142.844 102.148 142.874 102.179C142.905 102.209 142.922 102.25 142.922 102.292V105.19C142.922 105.233 142.905 105.274 142.874 105.304C142.844 105.334 142.803 105.351 142.761 105.351Z" fill="#E6E6E6"/>
<path d="M142.761 101.487C143.206 101.487 143.566 101.127 143.566 100.682C143.566 100.238 143.206 99.8774 142.761 99.8774C142.316 99.8774 141.956 100.238 141.956 100.682C141.956 101.127 142.316 101.487 142.761 101.487Z" fill="#E6E6E6"/>
<path d="M142.6 104.063C142.6 104.063 143.606 102.252 145.014 102.856L142.6 104.063Z" fill="#E6E6E6"/>
<path d="M99.2938 105.351C99.2511 105.351 99.2101 105.334 99.18 105.304C99.1498 105.274 99.1328 105.233 99.1328 105.19V102.292C99.1328 102.25 99.1498 102.209 99.18 102.179C99.2101 102.148 99.2511 102.131 99.2938 102.131C99.3365 102.131 99.3774 102.148 99.4076 102.179C99.4378 102.209 99.4548 102.25 99.4548 102.292V105.19C99.4548 105.233 99.4378 105.274 99.4076 105.304C99.3774 105.334 99.3365 105.351 99.2938 105.351Z" fill="#E6E6E6"/>
<path d="M99.2937 101.487C99.7383 101.487 100.099 101.127 100.099 100.682C100.099 100.238 99.7383 99.8774 99.2937 99.8774C98.8492 99.8774 98.4888 100.238 98.4888 100.682C98.4888 101.127 98.8492 101.487 99.2937 101.487Z" fill="#E6E6E6"/>
<path d="M99.1328 104.063C99.1328 104.063 100.139 102.252 101.548 102.856L99.1328 104.063Z" fill="#E6E6E6"/>
<path d="M107.181 105.351C107.139 105.351 107.098 105.334 107.068 105.304C107.037 105.274 107.021 105.233 107.021 105.19V102.292C107.021 102.25 107.037 102.209 107.068 102.179C107.098 102.148 107.139 102.131 107.181 102.131C107.224 102.131 107.265 102.148 107.295 102.179C107.326 102.209 107.342 102.25 107.342 102.292V105.19C107.342 105.233 107.326 105.274 107.295 105.304C107.265 105.334 107.224 105.351 107.181 105.351Z" fill="#E6E6E6"/>
<path d="M107.182 101.487C107.626 101.487 107.987 101.127 107.987 100.682C107.987 100.238 107.626 99.8774 107.182 99.8774C106.737 99.8774 106.377 100.238 106.377 100.682C106.377 101.127 106.737 101.487 107.182 101.487Z" fill="#E6E6E6"/>
<path d="M107.021 104.063C107.021 104.063 108.027 102.252 109.435 102.856L107.021 104.063Z" fill="#E6E6E6"/>
<path d="M112.221 93.0831C112.232 93.0642 112.245 93.0459 112.258 93.0283C112.29 92.9515 112.331 92.8786 112.38 92.811L116.431 87.1441L119.768 82.4771H125.461L125.058 83.0389L124.342 84.0419L122.122 87.1458L117.364 93.7995L121.774 102.657C121.954 103.018 121.647 103.536 121.091 103.813L118.965 104.872C118.754 104.98 118.521 105.038 118.284 105.043C117.984 105.043 117.735 104.932 117.63 104.721L112.148 93.7093C112.105 93.6076 112.089 93.4964 112.102 93.3866C112.115 93.2768 112.156 93.1722 112.221 93.0831Z" fill="#C81025"/>
<path d="M124.258 104.214V84.0883C124.257 84.0696 124.259 84.0508 124.261 84.0323C124.271 83.7988 124.349 83.5733 124.485 83.3835C124.621 83.1936 124.81 83.0478 125.028 82.9639C125.167 82.9087 125.316 82.8805 125.465 82.8809H127.842C128.162 82.8812 128.469 83.0085 128.695 83.2349C128.921 83.4613 129.049 83.7682 129.049 84.0883V104.214C129.049 104.534 128.921 104.841 128.695 105.067C128.469 105.293 128.162 105.421 127.842 105.421H125.465C125.145 105.421 124.838 105.293 124.612 105.067C124.386 104.841 124.258 104.534 124.258 104.214Z" fill="#C81025"/>
<path d="M121.384 68.2154L110.966 85.0582C110.797 85.3299 110.528 85.5236 110.216 85.5969C109.905 85.6703 109.577 85.6172 109.304 85.4495L107.283 84.2C107.011 84.031 106.818 83.7612 106.745 83.4497C106.671 83.1383 106.724 82.8105 106.892 82.5381L117.31 65.6948C117.362 65.6102 117.425 65.5327 117.497 65.4643C117.689 65.2765 117.939 65.1587 118.206 65.1296C118.474 65.1005 118.743 65.1619 118.972 65.3039L120.993 66.5534C121.128 66.6367 121.245 66.7459 121.338 66.8747C121.43 67.0035 121.497 67.1493 121.533 67.3038C121.561 67.4261 121.57 67.5519 121.561 67.677C121.546 67.868 121.485 68.0527 121.384 68.2154Z" fill="#FCD20F"/>
<path d="M121.931 67.9149L117.896 76.184C117.731 76.4577 117.463 76.6546 117.153 76.7317C116.843 76.8088 116.514 76.7597 116.24 76.5952L112.382 74.3366C112.108 74.1706 111.912 73.9034 111.834 73.593C111.796 73.4369 111.789 73.2748 111.814 73.116C111.839 72.9573 111.896 72.8051 111.98 72.6684L117.252 65.3283C117.27 65.2995 117.291 65.2734 117.316 65.2507C117.508 65.0682 117.94 65.0034 118.286 64.9515L118.34 64.9432C118.433 64.9289 118.514 64.9165 118.57 64.9021L118.592 64.8974C118.615 64.8923 118.639 64.8871 118.661 64.884C118.944 64.8368 119.235 64.8926 119.481 65.0414L121.515 66.2691C121.706 66.3861 121.862 66.5537 121.964 66.7533C122.067 66.9529 122.112 67.177 122.096 67.4008C122.082 67.5828 122.025 67.7589 121.931 67.9149Z" fill="#002780"/>
<path d="M123.303 58.2794C128.062 58.2794 131.919 54.4219 131.919 49.6634C131.919 44.9049 128.062 41.0474 123.303 41.0474C118.545 41.0474 114.687 44.9049 114.687 49.6634C114.687 54.4219 118.545 58.2794 123.303 58.2794Z" fill="#FCD20F"/>
<path d="M123.806 54.3059L123.815 53.9839C123.216 53.9673 122.687 53.9297 122.291 53.6398C122.178 53.5529 122.086 53.4428 122.02 53.317C121.953 53.1912 121.915 53.0527 121.907 52.9108C121.9 52.8241 121.913 52.7369 121.946 52.6561C121.978 52.5753 122.028 52.503 122.093 52.4448C122.356 52.2223 122.78 52.2943 123.089 52.436L123.355 52.5581L122.845 48.8247L122.526 48.8684L122.96 52.0442C122.54 51.9208 122.151 51.9739 121.885 52.1989C121.783 52.2882 121.702 52.3999 121.651 52.5254C121.599 52.6508 121.576 52.7866 121.586 52.9221C121.595 53.1128 121.646 53.2991 121.735 53.468C121.824 53.6369 121.949 53.7843 122.101 53.8998C122.611 54.2724 123.273 54.291 123.806 54.3059Z" fill="#2F2E41"/>
<path d="M120.948 49.1421H119.214V49.4641H120.948V49.1421Z" fill="#2F2E41"/>
<path d="M126.422 49.1421H124.688V49.4641H126.422V49.1421Z" fill="#2F2E41"/>
<path d="M112.067 91.5688C111.498 91.5359 111.055 90.6004 111.055 89.4273L114.435 70.0003C114.435 69.2659 114.528 68.5344 114.71 67.823L114.71 67.8228C114.777 67.567 114.855 67.3127 114.944 67.0674C115.485 65.5571 116.433 64.2263 117.685 63.2231C117.826 63.1077 117.974 62.996 118.124 62.8912C118.853 62.3767 119.657 61.9784 120.508 61.7103C120.485 61.6042 120.473 61.496 120.473 61.3873C120.473 60.9818 120.634 60.5931 120.921 60.3064C121.208 60.0197 121.597 59.8584 122.002 59.8579H124.256C124.661 59.8584 125.05 60.0197 125.337 60.3064C125.624 60.5931 125.785 60.9818 125.785 61.3873C125.785 61.4957 125.773 61.6038 125.75 61.7097C127.511 62.2674 129.049 63.3717 130.141 64.8623C131.233 66.3529 131.822 68.1525 131.822 70.0003L135.042 89.4273C135.042 90.6304 134.583 91.5729 133.996 91.5729H112.101C112.09 91.5731 112.078 91.5718 112.067 91.5688Z" fill="#002780"/>
<path d="M125.404 88.5984C125.304 88.4228 125.25 88.2248 125.246 88.0227L124.907 68.222C124.905 68.0635 124.933 67.9059 124.991 67.7583C125.049 67.6107 125.136 67.4761 125.246 67.3621L125.246 67.3618C125.357 67.2477 125.488 67.1564 125.633 67.0932C125.779 67.0299 125.935 66.996 126.094 66.9932L128.47 66.9533C128.769 66.9479 129.06 67.0541 129.285 67.2511C129.511 67.4481 129.655 67.7219 129.69 68.0192C129.695 68.0588 129.698 68.0987 129.698 68.1386L130.038 87.9407C130.042 88.2608 129.92 88.5696 129.697 88.7997C129.475 89.0297 129.17 89.1622 128.85 89.1682L126.475 89.2092C126.258 89.2123 126.044 89.1574 125.856 89.0499C125.668 88.9425 125.512 88.7866 125.404 88.5984Z" fill="#FCD20F"/>
<path d="M124.406 75.0011C124.316 74.8429 124.263 74.6663 124.25 74.4847L124.352 65.311C124.327 64.9918 124.43 64.6759 124.638 64.4325C124.846 64.1891 125.142 64.0382 125.461 64.0128L127.83 63.8273C128.118 63.8052 128.405 63.8867 128.639 64.0572C128.663 64.0756 128.687 64.098 128.711 64.114C128.77 64.1633 128.832 64.2095 128.896 64.2525L128.947 64.2889C129.288 64.53 129.674 64.8032 129.692 65.0694L131.117 74.0197C131.139 74.2752 131.077 74.5308 130.941 74.7483C130.909 74.8017 130.873 74.8523 130.832 74.8995C130.796 74.9414 130.758 74.9804 130.716 75.0161C130.519 75.1929 130.27 75.2996 130.006 75.3195L125.548 75.6071C125.32 75.6246 125.091 75.577 124.889 75.4697C124.687 75.3625 124.519 75.2 124.406 75.0011Z" fill="#002780"/>
<path d="M127.418 46.3381C127.178 45.6826 126.716 45.1319 126.112 44.7814C125.508 44.4308 124.801 44.3026 124.112 44.4188C123.617 44.5221 123.157 44.7501 122.774 45.0813C121.973 45.728 121.36 46.7022 120.313 46.9772C119.417 47.2128 118.437 46.9189 117.718 46.3611C115.973 45.0064 116.263 42.4322 117.561 40.8704C119.067 39.0574 121.628 38.533 123.876 38.6821C126.222 38.8377 128.483 39.7546 130.376 41.1308C132.288 42.521 133.793 44.4135 134.879 46.5033C135.428 47.5683 135.878 48.6822 136.221 49.8307C136.608 51.0354 136.851 52.2815 136.946 53.5432C137.015 54.7716 136.846 56.0352 136.189 57.0971C135.646 57.9738 134.797 58.688 133.766 58.883C133.295 58.9578 132.813 58.91 132.366 58.7442C131.919 58.5783 131.522 58.3 131.214 57.9361C130.889 57.5583 130.715 57.0739 130.725 56.5757C130.735 56.0775 130.929 55.6005 131.269 55.2362C131.457 55.0369 131.684 54.8771 131.935 54.7663C132.186 54.6556 132.457 54.5959 132.731 54.5909C133.005 54.586 133.278 54.6357 133.533 54.7373C133.788 54.8389 134.02 54.9903 134.216 55.1827C134.582 55.5624 134.802 56.1274 134.636 56.6479C134.496 57.0858 134.058 57.4893 133.574 57.4432C133.118 57.3997 132.703 56.928 132.813 56.4644C132.884 56.1621 132.418 56.0332 132.347 56.336C132.291 56.6075 132.323 56.8897 132.437 57.1421C132.552 57.3945 132.744 57.604 132.985 57.7407C133.222 57.8773 133.494 57.9388 133.767 57.9171C134.039 57.8954 134.299 57.7915 134.511 57.6192C135.529 56.8368 135.258 55.3679 134.33 54.6378C133.843 54.2637 133.237 54.0773 132.624 54.1126C132.01 54.1479 131.43 54.4026 130.989 54.8301C130.591 55.2229 130.336 55.7373 130.264 56.2917C130.191 56.846 130.306 57.4086 130.59 57.8903C130.875 58.3381 131.264 58.71 131.724 58.9737C132.185 59.2375 132.702 59.3853 133.232 59.4044C134.366 59.4416 135.439 58.8084 136.153 57.963C137.959 55.8238 137.532 52.809 136.86 50.3099C136.206 47.7884 135.036 45.4304 133.422 43.3858C131.813 41.3718 129.689 39.831 127.276 38.927C124.927 38.0645 122.179 37.8391 119.809 38.753C118.66 39.1963 117.615 39.9144 116.909 40.9371C116.229 41.8983 115.918 43.072 116.032 44.2438C116.092 44.7805 116.268 45.2976 116.55 45.7585C116.831 46.2194 117.211 46.6129 117.661 46.9112C118.503 47.4734 119.61 47.7196 120.59 47.3995C121.751 47.0196 122.361 45.9187 123.332 45.2635C123.751 44.9893 124.243 44.8511 124.743 44.8679C125.243 44.8846 125.725 45.0555 126.124 45.3571C126.511 45.6301 126.801 46.0185 126.953 46.4665C127.049 46.7604 127.516 46.6345 127.418 46.3381Z" fill="#2F2E41"/>
<path d="M132.495 76.1295C133.356 76.1352 134.27 76.1595 135.062 76.538C135.693 76.8395 136.278 77.3679 136.406 78.0851C136.521 78.7291 136.233 79.4838 135.57 79.6929C134.821 79.9292 134.063 79.4925 133.655 78.8742C133.104 78.0403 133.067 77.0137 133.033 76.0473C133.022 75.7374 132.538 75.736 132.55 76.0473C132.586 77.0682 132.638 78.1439 133.187 79.0389C133.666 79.8184 134.521 80.3594 135.459 80.2126C136.318 80.0781 136.858 79.3244 136.909 78.4879C136.961 77.6179 136.447 76.8578 135.753 76.379C134.805 75.7241 133.61 75.654 132.495 75.6465C132.432 75.6487 132.373 75.6751 132.33 75.7201C132.286 75.7652 132.262 75.8253 132.262 75.888C132.262 75.9506 132.286 76.0108 132.33 76.0558C132.373 76.1009 132.432 76.1273 132.495 76.1295Z" fill="#2F2E41"/>
<path d="M132.617 76.0965C133.44 75.5791 134.273 75.0054 134.792 74.1623C135.264 73.3959 135.447 72.4081 135.017 71.5825C134.637 70.8524 133.821 70.3625 132.993 70.5642C132.114 70.7783 131.555 71.6046 131.447 72.4653C131.3 73.6472 131.888 74.7284 132.454 75.7184C132.488 75.7714 132.541 75.8093 132.601 75.8242C132.662 75.839 132.727 75.8297 132.781 75.798C132.835 75.7664 132.874 75.715 132.891 75.6547C132.908 75.5944 132.901 75.5298 132.871 75.4747C132.442 74.7238 131.979 73.9314 131.915 73.0488C131.86 72.286 132.128 71.4805 132.854 71.1249C133.487 70.8143 134.178 71.1332 134.53 71.7036C134.939 72.3664 134.797 73.1874 134.425 73.8334C133.956 74.6492 133.152 75.1898 132.373 75.6795C132.111 75.8445 132.353 76.2626 132.617 76.0965Z" fill="#2F2E41"/>
<path d="M153.639 105.512H92.3016C92.2589 105.512 92.218 105.495 92.1878 105.465C92.1576 105.435 92.1406 105.394 92.1406 105.351C92.1406 105.308 92.1576 105.267 92.1878 105.237C92.218 105.207 92.2589 105.19 92.3016 105.19H153.639C153.681 105.19 153.722 105.207 153.753 105.237C153.783 105.267 153.8 105.308 153.8 105.351C153.8 105.394 153.783 105.435 153.753 105.465C153.722 105.495 153.681 105.512 153.639 105.512Z" fill="#CCCCCC"/>
</g>
<defs>
<clipPath id="clip0_603_2366">
<rect width="141.779" height="100.503" fill="white" transform="translate(12.021 5.00928)"/>
</clipPath>
</defs>
</svg>
