<svg width="180" height="110" viewBox="0 0 180 110" fill="none" xmlns="http://www.w3.org/2000/svg">
<g clip-path="url(#clip0_603_5362)">
<path d="M37.7036 91.9434C35.9992 93.117 34.2564 94.3282 33.0763 96.0281C31.8962 97.7279 31.3811 100.048 32.3293 101.888L32.3048 102.002C33.0235 102.255 33.7951 102.318 34.5454 102.186C35.2956 102.054 35.9991 101.731 36.5882 101.248C38.0885 99.9887 38.5589 97.9141 38.9416 95.9932L40.0736 90.3115L37.7036 91.9434Z" fill="#F0F0F0"/>
<path d="M39.3452 97.673C38.2083 97.9245 37.0434 98.1875 36.0685 98.8243C35.0937 99.4612 34.3344 100.562 34.4398 101.722L34.4028 101.776C34.7242 102.06 35.1131 102.256 35.5323 102.346C35.9514 102.436 36.3866 102.416 36.796 102.289C37.8445 101.95 38.5286 100.967 39.1343 100.047L40.9262 97.3232L39.3452 97.673Z" fill="#F0F0F0"/>
<path d="M134.258 12.0489H37.1848C37.1476 12.0487 37.1118 12.0338 37.0855 12.0074C37.0592 11.981 37.0444 11.9453 37.0444 11.908C37.0444 11.8707 37.0592 11.8349 37.0855 11.8085C37.1118 11.7821 37.1476 11.7672 37.1848 11.7671H134.258C134.296 11.7672 134.331 11.7821 134.358 11.8085C134.384 11.8349 134.399 11.8707 134.399 11.908C134.399 11.9453 134.384 11.981 134.358 12.0074C134.331 12.0338 134.296 12.0487 134.258 12.0489Z" fill="#CACACA"/>
<path d="M40.3555 10.0766C41.2114 10.0766 41.9053 9.38277 41.9053 8.52685C41.9053 7.67092 41.2114 6.97705 40.3555 6.97705C39.4995 6.97705 38.8057 7.67092 38.8057 8.52685C38.8057 9.38277 39.4995 10.0766 40.3555 10.0766Z" fill="#3F3D56"/>
<path d="M45.71 10.0766C46.5659 10.0766 47.2597 9.38277 47.2597 8.52685C47.2597 7.67092 46.5659 6.97705 45.71 6.97705C44.854 6.97705 44.1602 7.67092 44.1602 8.52685C44.1602 9.38277 44.854 10.0766 45.71 10.0766Z" fill="#3F3D56"/>
<path d="M51.0625 10.0766C51.9184 10.0766 52.6123 9.38277 52.6123 8.52685C52.6123 7.67092 51.9184 6.97705 51.0625 6.97705C50.2066 6.97705 49.5127 7.67092 49.5127 8.52685C49.5127 9.38277 50.2066 10.0766 51.0625 10.0766Z" fill="#3F3D56"/>
<path d="M131.051 7.92489H127.247C127.172 7.92489 127.1 7.8952 127.047 7.84236C126.995 7.78951 126.965 7.71784 126.965 7.64311C126.965 7.56838 126.995 7.4967 127.047 7.44386C127.1 7.39101 127.172 7.36133 127.247 7.36133H131.051C131.125 7.36133 131.197 7.39101 131.25 7.44386C131.303 7.4967 131.332 7.56838 131.332 7.64311C131.332 7.71784 131.303 7.78951 131.25 7.84236C131.197 7.8952 131.125 7.92489 131.051 7.92489Z" fill="#3F3D56"/>
<path d="M131.051 8.98153H127.247C127.172 8.98153 127.1 8.95184 127.047 8.899C126.995 8.84615 126.965 8.77448 126.965 8.69975C126.965 8.62502 126.995 8.55335 127.047 8.5005C127.1 8.44766 127.172 8.41797 127.247 8.41797H131.051C131.125 8.41797 131.197 8.44766 131.25 8.5005C131.303 8.55335 131.332 8.62502 131.332 8.69975C131.332 8.77448 131.303 8.84615 131.25 8.899C131.197 8.95184 131.125 8.98153 131.051 8.98153Z" fill="#3F3D56"/>
<path d="M131.051 10.0382H127.247C127.172 10.0382 127.1 10.0085 127.047 9.95564C126.995 9.9028 126.965 9.83112 126.965 9.75639C126.965 9.68166 126.995 9.60998 127.047 9.55714C127.1 9.5043 127.172 9.47461 127.247 9.47461H131.051C131.125 9.47487 131.197 9.50467 131.249 9.55748C131.302 9.6103 131.331 9.68182 131.331 9.75639C131.331 9.83095 131.302 9.90248 131.249 9.9553C131.197 10.0081 131.125 10.0379 131.051 10.0382Z" fill="#3F3D56"/>
<path d="M103.154 18.0908H38.7666V56.6948H103.154V18.0908Z" fill="#F0F0F0"/>
<path d="M131.333 18.0908H111.044V30.2549H131.333V18.0908Z" fill="#FFD8DC"/>
<path d="M127.285 35.8427H115.213C115.062 35.8427 114.918 35.7828 114.811 35.6762C114.704 35.5696 114.645 35.425 114.645 35.2742C114.645 35.1234 114.704 34.9787 114.811 34.8721C114.918 34.7655 115.062 34.7056 115.213 34.7056H127.285C127.435 34.7056 127.58 34.7655 127.687 34.8721C127.793 34.9787 127.853 35.1234 127.853 35.2742C127.853 35.425 127.793 35.5696 127.687 35.6762C127.58 35.7828 127.435 35.8427 127.285 35.8427Z" fill="#E4E4E4"/>
<path d="M125.338 33.8964H117.159C117.009 33.8964 116.864 33.8365 116.757 33.7299C116.651 33.6233 116.591 33.4787 116.591 33.3279C116.591 33.1771 116.651 33.0324 116.757 32.9258C116.864 32.8192 117.009 32.7593 117.159 32.7593H125.338C125.489 32.7593 125.634 32.8192 125.74 32.9258C125.847 33.0324 125.907 33.1771 125.907 33.3279C125.907 33.4787 125.847 33.6233 125.74 33.7299C125.634 33.8365 125.489 33.8964 125.338 33.8964Z" fill="#E4E4E4"/>
<path d="M131.333 40.2104H111.044V52.3745H131.333V40.2104Z" fill="#FFD8DC"/>
<path d="M127.285 57.9628H115.213C115.062 57.9628 114.918 57.9029 114.811 57.7963C114.704 57.6897 114.645 57.5451 114.645 57.3943C114.645 57.2435 114.704 57.0988 114.811 56.9922C114.918 56.8856 115.062 56.8257 115.213 56.8257H127.285C127.435 56.8257 127.58 56.8856 127.687 56.9922C127.793 57.0988 127.853 57.2435 127.853 57.3943C127.853 57.5451 127.793 57.6897 127.687 57.7963C127.58 57.9029 127.435 57.9628 127.285 57.9628Z" fill="#E4E4E4"/>
<path d="M125.338 56.0166H117.159C117.009 56.0166 116.864 55.9567 116.757 55.85C116.651 55.7434 116.591 55.5988 116.591 55.448C116.591 55.2972 116.651 55.1526 116.757 55.0459C116.864 54.9393 117.009 54.8794 117.159 54.8794H125.338C125.489 54.8797 125.633 54.9397 125.74 55.0463C125.846 55.1529 125.906 55.2974 125.906 55.448C125.906 55.5986 125.846 55.7431 125.74 55.8497C125.633 55.9563 125.489 56.0163 125.338 56.0166Z" fill="#E4E4E4"/>
<path d="M72.0791 38.858C74.7327 38.858 76.8839 36.7068 76.8839 34.0533C76.8839 31.3997 74.7327 29.2485 72.0791 29.2485C69.4256 29.2485 67.2744 31.3997 67.2744 34.0533C67.2744 36.7068 69.4256 38.858 72.0791 38.858Z" fill="#9E616A"/>
<path d="M80.175 56.6946H68.1274L68.8036 41.4602L68.8868 41.3728L70.083 40.1104H73.8871L75.2988 41.477L75.41 41.5856L78.4139 44.4639L80.175 56.6946Z" fill="#FFCB21" fill-opacity="0.6"/>
<path d="M71.4618 56.6949H62.3053C62.2447 50.8648 62.1968 46.4662 62.1968 46.4662L62.6646 46.1816L62.6674 46.1802L67.8028 43.0623L68.8807 41.311L68.8863 41.373L69.2033 45.0644C69.2033 45.0644 70.9264 50.6309 71.4618 56.6949Z" fill="#C81025"/>
<path d="M83.9207 56.6949H75.773C75.3376 54.7196 75.1108 52.8387 75.2095 51.2706C75.6096 44.8643 74.6868 41.311 75.0869 41.311L75.2982 41.4773L77.8117 43.4624L81.1212 44.6755L83.4177 45.518L83.8178 45.6646V45.8576C83.8193 46.8269 83.8291 51.3283 83.9207 56.6949Z" fill="#C81025"/>
<path d="M67.5335 35.5566C67.5335 35.5566 67.9417 34.8397 67.8468 32.4447C67.7519 30.0498 71.3988 31.4043 74.4462 31.1759C77.4937 30.9474 76.8486 35.1743 76.8486 35.1743C76.8486 35.1743 77.0684 34.923 77.5391 32.883C78.0098 30.843 76.9411 28.81 76.9411 28.81C76.6263 26.6663 74.93 27.3534 74.93 27.3534C75.7469 27.6714 75.59 28.3514 75.59 28.3514C74.8985 27.139 73.2022 27.8261 73.2022 27.8261C70.9397 26.4063 68.6468 28.2759 68.6468 28.2759C65.9137 28.8962 67.5165 31.0698 67.5165 31.0698C64.7679 32.4588 67.5335 35.5566 67.5335 35.5566Z" fill="#2F2E41"/>
<path d="M59.6528 56.6948C59.8867 52.0187 60.0656 48.3499 59.9952 48.0667C59.7979 47.2791 62.5805 46.2126 62.665 46.1816L62.6664 46.1802H62.6679L63.199 46.4662L63.5879 56.6948H59.6528Z" fill="#C81025"/>
<path d="M85.8372 56.6946H81.7021L80.5186 45.0049L81.006 44.6484C81.006 44.6484 81.0483 44.6583 81.1216 44.6752C81.5006 44.7696 82.7235 45.0894 83.4181 45.5177C83.5718 45.6045 83.7076 45.7198 83.8182 45.8573C83.8859 45.9382 83.9198 46.0422 83.9127 46.1475C83.8774 46.4786 84.7791 51.159 85.8372 56.6946Z" fill="#C81025"/>
<path d="M92.7983 61.4146H49.1222C48.9543 61.4148 48.7933 61.4817 48.6746 61.6006C48.5559 61.7195 48.4893 61.8806 48.4893 62.0486C48.4893 62.2165 48.5559 62.3776 48.6746 62.4965C48.7933 62.6154 48.9543 62.6823 49.1222 62.6826H92.7983C92.8816 62.6827 92.9642 62.6664 93.0412 62.6346C93.1183 62.6028 93.1883 62.5561 93.2473 62.4972C93.3063 62.4384 93.3531 62.3684 93.385 62.2914C93.4169 62.2144 93.4333 62.1319 93.4333 62.0486C93.4333 61.9652 93.4169 61.8827 93.385 61.8057C93.3531 61.7287 93.3063 61.6588 93.2473 61.5999C93.1883 61.541 93.1183 61.4943 93.0412 61.4625C92.9642 61.4307 92.8816 61.4144 92.7983 61.4146Z" fill="#CACACA"/>
<path d="M80.9635 61.4146V62.6826H49.1222C48.9543 62.6823 48.7933 62.6154 48.6746 62.4965C48.5559 62.3776 48.4893 62.2165 48.4893 62.0486C48.4893 61.8806 48.5559 61.7195 48.6746 61.6006C48.7933 61.4817 48.9543 61.4148 49.1222 61.4146H80.9635Z" fill="#3F3D56"/>
<path d="M80.9638 63.3168C81.6641 63.3168 82.2318 62.7491 82.2318 62.0488C82.2318 61.3485 81.6641 60.7808 80.9638 60.7808C80.2635 60.7808 79.6958 61.3485 79.6958 62.0488C79.6958 62.7491 80.2635 63.3168 80.9638 63.3168Z" fill="#3F3D56"/>
<path d="M70.9603 72.6154C70.4426 72.6154 69.9365 72.4619 69.5061 72.1743C69.0756 71.8866 68.7401 71.4778 68.542 70.9996C68.3439 70.5213 68.2921 69.995 68.3931 69.4872C68.4941 68.9795 68.7434 68.5131 69.1094 68.147C69.4755 67.781 69.9419 67.5317 70.4496 67.4307C70.9574 67.3297 71.4837 67.3815 71.962 67.5796C72.4402 67.7777 72.849 68.1132 73.1367 68.5437C73.4243 68.9741 73.5778 69.4802 73.5778 69.9979C73.577 70.6918 73.301 71.3572 72.8103 71.8479C72.3196 72.3386 71.6542 72.6146 70.9603 72.6154ZM70.9603 67.5817C70.4824 67.5817 70.0153 67.7234 69.6179 67.9889C69.2206 68.2544 68.9109 68.6318 68.728 69.0733C68.5452 69.5148 68.4973 70.0006 68.5905 70.4692C68.6838 70.9379 68.9139 71.3685 69.2518 71.7064C69.5897 72.0443 70.0202 72.2744 70.4889 72.3676C70.9576 72.4608 71.4434 72.413 71.8849 72.2301C72.3264 72.0472 72.7038 71.7376 72.9692 71.3402C73.2347 70.9429 73.3764 70.4757 73.3764 69.9979C73.3757 69.3573 73.1209 68.7432 72.668 68.2902C72.215 67.8373 71.6009 67.5825 70.9603 67.5817Z" fill="#C81025"/>
<path d="M70.6144 71.4073C70.5877 71.4073 70.562 71.3967 70.5432 71.3778C70.5243 71.3589 70.5137 71.3333 70.5137 71.3066V68.6891C70.5135 68.6758 70.516 68.6626 70.521 68.6502C70.526 68.6379 70.5334 68.6267 70.5428 68.6172C70.5522 68.6078 70.5633 68.6003 70.5756 68.5952C70.5879 68.59 70.601 68.5874 70.6143 68.5874C70.6277 68.5874 70.6408 68.59 70.6531 68.5952C70.6654 68.6003 70.6765 68.6078 70.6859 68.6172C70.6953 68.6267 70.7026 68.6379 70.7076 68.6502C70.7126 68.6626 70.7152 68.6758 70.715 68.6891V71.3066C70.715 71.3333 70.7044 71.3589 70.6855 71.3778C70.6667 71.3967 70.6411 71.4073 70.6144 71.4073Z" fill="#C81025"/>
<path d="M71.3062 71.4072C71.2795 71.4072 71.2539 71.3966 71.2351 71.3777C71.2162 71.3588 71.2056 71.3332 71.2056 71.3065V68.689C71.2054 68.6757 71.208 68.6625 71.213 68.6502C71.218 68.6379 71.2254 68.6267 71.2347 68.6172C71.2441 68.6078 71.2552 68.6003 71.2675 68.5952C71.2798 68.59 71.2929 68.5874 71.3062 68.5874C71.3195 68.5874 71.3327 68.59 71.345 68.5952C71.3573 68.6003 71.3684 68.6078 71.3778 68.6172C71.3871 68.6267 71.3945 68.6379 71.3995 68.6502C71.4045 68.6625 71.407 68.6757 71.4069 68.689V71.3065C71.4069 71.3332 71.3963 71.3588 71.3774 71.3777C71.3586 71.3966 71.3329 71.4072 71.3062 71.4072Z" fill="#C81025"/>
<path d="M58.9712 69.9979C58.9712 69.4802 59.1247 68.9741 59.4123 68.5437C59.6999 68.1132 60.1087 67.7777 60.587 67.5796C61.0653 67.3815 61.5916 67.3297 62.0993 67.4307C62.6071 67.5317 63.0735 67.781 63.4396 68.147C63.8056 68.5131 64.0549 68.9795 64.1559 69.4872C64.2569 69.995 64.2051 70.5213 64.007 70.9996C63.8088 71.4778 63.4734 71.8866 63.0429 72.1743C62.6125 72.4619 62.1064 72.6154 61.5887 72.6154C60.8947 72.6146 60.2294 72.3386 59.7387 71.8479C59.248 71.3572 58.972 70.6918 58.9712 69.9979ZM59.1725 69.9979C59.1725 70.4757 59.3143 70.9429 59.5797 71.3402C59.8452 71.7376 60.2226 72.0473 60.6641 72.2301C61.1056 72.413 61.5914 72.4609 62.0601 72.3676C62.5288 72.2744 62.9593 72.0443 63.2972 71.7064C63.6351 71.3685 63.8652 70.9379 63.9584 70.4693C64.0517 70.0006 64.0038 69.5148 63.8209 69.0733C63.6381 68.6318 63.3284 68.2544 62.931 67.9889C62.5337 67.7234 62.0666 67.5817 61.5887 67.5817C60.9481 67.5825 60.334 67.8373 59.881 68.2902C59.4281 68.7432 59.1733 69.3573 59.1725 69.9979Z" fill="#3F3D56"/>
<path d="M62.7194 70.8793C62.7379 70.8793 62.7558 70.8732 62.7704 70.862C62.7851 70.8508 62.7956 70.835 62.8004 70.8172C62.8051 70.7994 62.8039 70.7805 62.7969 70.7635C62.7898 70.7465 62.7773 70.7322 62.7614 70.723L61.5056 69.998L62.7614 69.273C62.7806 69.2618 62.7946 69.2436 62.8004 69.2221C62.8061 69.2007 62.8031 69.1778 62.792 69.1586C62.7809 69.1393 62.7626 69.1253 62.7412 69.1196C62.7197 69.1138 62.6969 69.1168 62.6776 69.1279L61.2963 69.9255C61.2835 69.9328 61.273 69.9434 61.2656 69.9561C61.2583 69.9689 61.2544 69.9833 61.2544 69.998C61.2544 70.0127 61.2583 70.0271 61.2656 70.0399C61.273 70.0526 61.2835 70.0632 61.2963 70.0705L62.6776 70.8681C62.6903 70.8754 62.7047 70.8793 62.7194 70.8793Z" fill="#3F3D56"/>
<path d="M60.8669 71.1699C60.8891 71.1699 60.9104 71.161 60.9261 71.1453C60.9418 71.1296 60.9506 71.1083 60.9506 71.0861V68.9094C60.9506 68.8872 60.9418 68.8659 60.9261 68.8502C60.9104 68.8345 60.8891 68.8257 60.8669 68.8257C60.8447 68.8257 60.8234 68.8345 60.8077 68.8502C60.792 68.8659 60.7832 68.8872 60.7832 68.9094V71.0861C60.7832 71.1083 60.792 71.1296 60.8077 71.1453C60.8234 71.161 60.8447 71.1699 60.8669 71.1699Z" fill="#3F3D56"/>
<path d="M80.3314 72.6154C79.8137 72.6154 79.3076 72.4619 78.8772 72.1743C78.4467 71.8866 78.1112 71.4778 77.9131 70.9996C77.715 70.5213 77.6632 69.995 77.7642 69.4872C77.8652 68.9795 78.1144 68.5131 78.4805 68.147C78.8466 67.781 79.313 67.5317 79.8207 67.4307C80.3285 67.3297 80.8548 67.3815 81.333 67.5796C81.8113 67.7777 82.2201 68.1132 82.5078 68.5437C82.7954 68.9741 82.9489 69.4802 82.9489 69.9979C82.9481 70.6918 82.6721 71.3572 82.1814 71.8479C81.6906 72.3386 81.0253 72.6146 80.3314 72.6154ZM80.3314 67.5817C79.8535 67.5817 79.3864 67.7234 78.989 67.9889C78.5917 68.2544 78.282 68.6318 78.0991 69.0733C77.9163 69.5148 77.8684 70.0006 77.9616 70.4692C78.0549 70.9379 78.285 71.3685 78.6229 71.7064C78.9608 72.0443 79.3913 72.2744 79.86 72.3676C80.3287 72.4608 80.8145 72.413 81.256 72.2301C81.6975 72.0472 82.0748 71.7376 82.3403 71.3402C82.6058 70.9429 82.7475 70.4757 82.7475 69.9979C82.7468 69.3573 82.492 68.7432 82.039 68.2902C81.5861 67.8373 80.972 67.5825 80.3314 67.5817Z" fill="#3F3D56"/>
<path d="M79.201 70.8791C79.1826 70.8791 79.1646 70.8731 79.15 70.8618C79.1354 70.8506 79.1248 70.8349 79.12 70.8171C79.1153 70.7993 79.1165 70.7804 79.1236 70.7634C79.1306 70.7463 79.1431 70.7321 79.159 70.7229L80.4149 69.9978L79.159 69.2728C79.1399 69.2617 79.1259 69.2434 79.1202 69.222C79.1145 69.2006 79.1176 69.1778 79.1286 69.1586C79.1397 69.1394 79.1579 69.1254 79.1793 69.1196C79.2007 69.1138 79.2235 69.1168 79.2428 69.1278L80.6242 69.9253C80.6369 69.9327 80.6474 69.9432 80.6548 69.956C80.6621 69.9687 80.666 69.9831 80.666 69.9978C80.666 70.0125 80.6621 70.027 80.6548 70.0397C80.6474 70.0524 80.6369 70.063 80.6242 70.0704L79.2428 70.8679C79.2301 70.8753 79.2157 70.8791 79.201 70.8791Z" fill="#3F3D56"/>
<path d="M81.053 71.1699C81.0308 71.1699 81.0095 71.161 80.9938 71.1453C80.9781 71.1296 80.9692 71.1083 80.9692 71.0861V68.9094C80.9692 68.8872 80.9781 68.8659 80.9938 68.8502C81.0095 68.8345 81.0308 68.8257 81.053 68.8257C81.0752 68.8257 81.0965 68.8345 81.1122 68.8502C81.1279 68.8659 81.1367 68.8872 81.1367 68.9094V71.0861C81.1367 71.1083 81.1279 71.1296 81.1122 71.1453C81.0965 71.161 81.0752 71.1699 81.053 71.1699Z" fill="#3F3D56"/>
<path d="M45.7792 71.9706C45.6409 71.832 45.5346 71.6647 45.4679 71.4806C45.4011 71.2965 45.3756 71.1 45.393 70.9049C45.4105 70.7099 45.4705 70.521 45.5688 70.3516C45.6671 70.1823 45.8014 70.0365 45.9622 69.9247L44.6743 65.3418L47.0309 66.0942L47.8926 70.3308C48.0626 70.6133 48.123 70.9484 48.0625 71.2725C48.002 71.5966 47.8247 71.8873 47.5642 72.0894C47.3037 72.2915 46.9781 72.3911 46.6491 72.3692C46.3202 72.3473 46.0106 72.2055 45.7792 71.9706Z" fill="#FFB6B6"/>
<path d="M45.1498 49.1379L44.6617 48.6299C44.6617 48.6299 43.1524 49.6665 43.4718 52.88C43.7076 55.2536 42.9623 56.2602 43.0456 63.1591L45.1498 69.4772L47.5836 68.2014L45.8228 60.4057L45.1498 49.1379Z" fill="#002780"/>
<path d="M46.9754 100.416H48.7206L49.5509 93.6846L46.9751 93.6847L46.9754 100.416Z" fill="#FFB6B6"/>
<path d="M46.5303 99.8463L49.9671 99.8462C50.5479 99.8462 51.1051 100.077 51.5159 100.488C51.9266 100.898 52.1574 101.455 52.1574 102.036V102.108L46.5304 102.108L46.5303 99.8463Z" fill="#2F2E41"/>
<path d="M52.0649 99.7979L53.7971 100.01L55.4406 93.4302L52.8841 93.1167L52.0649 99.7979Z" fill="#FFB6B6"/>
<path d="M51.6922 99.1782L55.1035 99.5965C55.68 99.6672 56.205 99.9641 56.5626 100.422C56.9203 100.879 57.0815 101.46 57.0109 102.037L57.0022 102.108L51.417 101.423L51.6922 99.1782Z" fill="#2F2E41"/>
<path d="M46.0705 65.9038C46.0705 65.9038 42.7088 68.2013 44.3895 74.4201L46.6626 98.5589L49.363 98.5398L50.5069 86.6289L51.2842 78.2435L53.8816 86.9147L51.7452 97.5547L54.8983 97.8866L58.6761 85.5132L56.8543 67.8964L46.0705 65.9038Z" fill="#2F2E41"/>
<path d="M54.1819 47.9774L52.4725 46.6026L47.9395 46.416L44.6611 48.6296C44.6611 48.6296 44.3227 56.5117 46.5411 63.5329L45.378 66.4659L57.0072 67.9248L54.1819 47.9774Z" fill="#002780"/>
<path d="M50.5167 44.7292C52.6641 44.7292 54.405 42.9884 54.405 40.8409C54.405 38.6935 52.6641 36.9526 50.5167 36.9526C48.3693 36.9526 46.6284 38.6935 46.6284 40.8409C46.6284 42.9884 48.3693 44.7292 50.5167 44.7292Z" fill="#FFB6B6"/>
<path d="M51.5364 36.0343H50.6723C50.0702 35.8548 49.4345 35.8185 48.8159 35.9281C48.1972 36.0378 47.6128 36.2904 47.109 36.6658C46.6053 37.0413 46.1962 37.5292 45.9143 38.0907C45.6325 38.6522 45.4857 39.2718 45.4856 39.9L44.1399 44.341C44.1011 44.469 44.0928 44.6044 44.1157 44.7362C44.1386 44.8681 44.1921 44.9927 44.2718 45.1002C44.3515 45.2076 44.4553 45.2949 44.5748 45.3551C44.6944 45.4153 44.8263 45.4466 44.9601 45.4466H45.617C45.8921 45.0548 46.012 44.5749 45.9537 44.0998C46.0759 44.3973 46.1615 44.7084 46.2086 45.0265C46.2239 45.1663 46.221 45.3075 46.2 45.4466H51.9147C51.9517 44.8861 51.766 44.3336 51.398 43.9092C51.8584 44.3692 52.2586 44.8858 52.5889 45.4466H52.6962C52.9236 45.4466 53.1415 45.3563 53.3023 45.1955C53.463 45.0348 53.5533 44.8168 53.5533 44.5895V40.2362H55.7383C55.7383 39.6844 55.6296 39.138 55.4184 38.6282C55.2073 38.1184 54.8978 37.6552 54.5076 37.265C54.1174 36.8748 53.6542 36.5653 53.1444 36.3541C52.6346 36.143 52.0882 36.0343 51.5364 36.0343Z" fill="#2F2E41"/>
<path d="M55.8647 71.6347C55.7263 71.4961 55.62 71.3288 55.5533 71.1447C55.4866 70.9606 55.461 70.7641 55.4785 70.569C55.4959 70.3739 55.5559 70.1851 55.6543 70.0157C55.7526 69.8464 55.8869 69.7006 56.0476 69.5888L54.7598 65.0059L57.1163 65.7582L57.978 69.9949C58.148 70.2774 58.2085 70.6124 58.148 70.9366C58.0875 71.2607 57.9102 71.5513 57.6497 71.7535C57.3892 71.9556 57.0636 72.0551 56.7346 72.0332C56.4056 72.0113 56.0961 71.8695 55.8647 71.6347Z" fill="#FFB6B6"/>
<path d="M52.7084 48.8471L54.1824 47.9774C54.1824 47.9774 56.5009 47.5687 56.7484 50.6576C56.9959 53.7465 57.3523 61.7647 57.3523 61.7647L58.0755 68.524L55.392 69.0962L52.3076 59.8528L52.7084 48.8471Z" fill="#002780"/>
<path d="M66.2442 102.425H30.6119C30.5673 102.425 30.5246 102.407 30.4931 102.375C30.4616 102.344 30.4438 102.301 30.4438 102.256C30.4438 102.212 30.4616 102.169 30.4931 102.138C30.5246 102.106 30.5673 102.088 30.6119 102.088H66.2442C66.2887 102.088 66.3315 102.106 66.363 102.138C66.3945 102.169 66.4122 102.212 66.4122 102.256C66.4122 102.301 66.3945 102.344 66.363 102.375C66.3315 102.407 66.2887 102.425 66.2442 102.425Z" fill="#CACACA"/>
</g>
<defs>
<clipPath id="clip0_603_5362">
<rect width="103.955" height="95.4476" fill="white" transform="translate(30.4443 6.97705)"/>
</clipPath>
</defs>
</svg>
